<?xml version="1.0" encoding="UTF-8" standalone="no"?>
<!DOCTYPE svg PUBLIC "-//W3C//DTD SVG 1.1//EN"
 "http://www.w3.org/Graphics/SVG/1.1/DTD/svg11.dtd">
<!-- Generated by graphviz version 2.47.0 (20210316.0004)
 -->
<!-- Title: dependencies Pages: 1 -->
<svg width="2212pt" height="211pt"
 viewBox="0.00 0.00 2212.00 211.00" xmlns="http://www.w3.org/2000/svg" xmlns:xlink="http://www.w3.org/1999/xlink">
<g id="graph0" class="graph" transform="scale(1 1) rotate(0) translate(4 207)">
<title>dependencies</title>
<polygon fill="white" stroke="transparent" points="-4,4 -4,-207 2208,-207 2208,4 -4,4"/>
<text text-anchor="start" x="1081.01" y="-42.4" font-family="sans-serif" font-weight="bold" font-size="14.00">Legend</text>
<polygon fill="#ffffb3" stroke="transparent" points="868,-10 868,-30 888,-30 888,-10 868,-10"/>
<text text-anchor="start" x="891.63" y="-15.4" font-family="sans-serif" font-size="14.00"> &#160;Declarations</text>
<polygon fill="#8dd3c7" stroke="transparent" points="981,-10 981,-30 1001,-30 1001,-10 981,-10"/>
<text text-anchor="start" x="1004.73" y="-15.4" font-family="sans-serif" font-size="14.00"> &#160;Module</text>
<polygon fill="#80b1d3" stroke="transparent" points="1067,-10 1067,-30 1087,-30 1087,-10 1067,-10"/>
<text text-anchor="start" x="1090.78" y="-15.4" font-family="sans-serif" font-size="14.00"> &#160;Bootstrap</text>
<polygon fill="#fdb462" stroke="transparent" points="1164,-10 1164,-30 1184,-30 1184,-10 1164,-10"/>
<text text-anchor="start" x="1187.67" y="-15.4" font-family="sans-serif" font-size="14.00"> &#160;Providers</text>
<polygon fill="#fb8072" stroke="transparent" points="1260,-10 1260,-30 1280,-30 1280,-10 1260,-10"/>
<text text-anchor="start" x="1283.73" y="-15.4" font-family="sans-serif" font-size="14.00"> &#160;Exports</text>
<g id="clust1" class="cluster">
<title>cluster_CoreModule</title>
<polygon fill="none" stroke="black" stroke-dasharray="1,5" points="8,-70 8,-195 2196,-195 2196,-70 8,-70"/>
</g>
<g id="clust14" class="cluster">
<title>cluster_CoreModule_imports</title>
<polygon fill="none" stroke="black" points="1924,-78 1924,-130 2188,-130 2188,-78 1924,-78"/>
</g>
<g id="clust2" class="cluster">
<title>cluster_CoreModule_declarations</title>
<polygon fill="none" stroke="black" points="16,-78 16,-130 1916,-130 1916,-78 16,-78"/>
</g>
<!-- AboutComponent -->
<g id="node1" class="node">
<title>AboutComponent</title>
<polygon fill="#ffffb3" stroke="black" points="1908.33,-122 1791.67,-122 1791.67,-86 1908.33,-86 1908.33,-122"/>
<text text-anchor="middle" x="1850" y="-99.8" font-family="Times,serif" font-size="14.00">AboutComponent</text>
</g>
<!-- CoreModule -->
<g id="node12" class="node">
<title>CoreModule</title>
<polygon fill="#8dd3c7" stroke="black" points="1185.26,-187 1182.26,-191 1161.26,-191 1158.26,-187 1098.74,-187 1098.74,-151 1185.26,-151 1185.26,-187"/>
<text text-anchor="middle" x="1142" y="-164.8" font-family="Times,serif" font-size="14.00">CoreModule</text>
</g>
<!-- AboutComponent&#45;&gt;CoreModule -->
<g id="edge1" class="edge">
<title>AboutComponent&#45;&gt;CoreModule</title>
<path fill="none" stroke="black" d="M1850,-122.22C1850,-142.37 1850,-172 1850,-172 1850,-172 1195.49,-172 1195.49,-172"/>
<polygon fill="black" stroke="black" points="1195.49,-168.5 1185.49,-172 1195.49,-175.5 1195.49,-168.5"/>
</g>
<!-- AtmNavbarComponent -->
<g id="node2" class="node">
<title>AtmNavbarComponent</title>
<polygon fill="#ffffb3" stroke="black" points="1773.92,-122 1626.08,-122 1626.08,-86 1773.92,-86 1773.92,-122"/>
<text text-anchor="middle" x="1700" y="-99.8" font-family="Times,serif" font-size="14.00">AtmNavbarComponent</text>
</g>
<!-- AtmNavbarComponent&#45;&gt;CoreModule -->
<g id="edge2" class="edge">
<title>AtmNavbarComponent&#45;&gt;CoreModule</title>
<path fill="none" stroke="black" d="M1700,-122.22C1700,-140.83 1700,-167 1700,-167 1700,-167 1195.32,-167 1195.32,-167"/>
<polygon fill="black" stroke="black" points="1195.32,-163.5 1185.32,-167 1195.32,-170.5 1195.32,-163.5"/>
</g>
<!-- AtmSingleMenuComponent -->
<g id="node3" class="node">
<title>AtmSingleMenuComponent</title>
<polygon fill="#ffffb3" stroke="black" points="1608.16,-122 1433.84,-122 1433.84,-86 1608.16,-86 1608.16,-122"/>
<text text-anchor="middle" x="1521" y="-99.8" font-family="Times,serif" font-size="14.00">AtmSingleMenuComponent</text>
</g>
<!-- AtmSingleMenuComponent&#45;&gt;CoreModule -->
<g id="edge3" class="edge">
<title>AtmSingleMenuComponent&#45;&gt;CoreModule</title>
<path fill="none" stroke="black" d="M1521,-122.03C1521,-139.06 1521,-162 1521,-162 1521,-162 1195.48,-162 1195.48,-162"/>
<polygon fill="black" stroke="black" points="1195.48,-158.5 1185.48,-162 1195.48,-165.5 1195.48,-158.5"/>
</g>
<!-- AtmTreeviewMenuComponent -->
<g id="node4" class="node">
<title>AtmTreeviewMenuComponent</title>
<polygon fill="#ffffb3" stroke="black" points="1415.73,-122 1224.27,-122 1224.27,-86 1415.73,-86 1415.73,-122"/>
<text text-anchor="middle" x="1320" y="-99.8" font-family="Times,serif" font-size="14.00">AtmTreeviewMenuComponent</text>
</g>
<!-- AtmTreeviewMenuComponent&#45;&gt;CoreModule -->
<g id="edge4" class="edge">
<title>AtmTreeviewMenuComponent&#45;&gt;CoreModule</title>
<path fill="none" stroke="black" d="M1320,-122.24C1320,-137.57 1320,-157 1320,-157 1320,-157 1195.54,-157 1195.54,-157"/>
<polygon fill="black" stroke="black" points="1195.54,-153.5 1185.54,-157 1195.54,-160.5 1195.54,-153.5"/>
</g>
<!-- BerandaComponent -->
<g id="node5" class="node">
<title>BerandaComponent</title>
<polygon fill="#ffffb3" stroke="black" points="1205.97,-122 1078.03,-122 1078.03,-86 1205.97,-86 1205.97,-122"/>
<text text-anchor="middle" x="1142" y="-99.8" font-family="Times,serif" font-size="14.00">BerandaComponent</text>
</g>
<!-- BerandaComponent&#45;&gt;CoreModule -->
<g id="edge5" class="edge">
<title>BerandaComponent&#45;&gt;CoreModule</title>
<path fill="none" stroke="black" d="M1142,-122.11C1142,-122.11 1142,-140.99 1142,-140.99"/>
<polygon fill="black" stroke="black" points="1138.5,-140.99 1142,-150.99 1145.5,-140.99 1138.5,-140.99"/>
</g>
<!-- DashboardComponent -->
<g id="node6" class="node">
<title>DashboardComponent</title>
<polygon fill="#ffffb3" stroke="black" points="1059.97,-122 918.03,-122 918.03,-86 1059.97,-86 1059.97,-122"/>
<text text-anchor="middle" x="989" y="-99.8" font-family="Times,serif" font-size="14.00">DashboardComponent</text>
</g>
<!-- DashboardComponent&#45;&gt;CoreModule -->
<g id="edge6" class="edge">
<title>DashboardComponent&#45;&gt;CoreModule</title>
<path fill="none" stroke="black" d="M989,-122.24C989,-137.57 989,-157 989,-157 989,-157 1088.57,-157 1088.57,-157"/>
<polygon fill="black" stroke="black" points="1088.57,-160.5 1098.57,-157 1088.57,-153.5 1088.57,-160.5"/>
</g>
<!-- ExmpleMasterComponent -->
<g id="node7" class="node">
<title>ExmpleMasterComponent</title>
<polygon fill="#ffffb3" stroke="black" points="899.75,-122 736.25,-122 736.25,-86 899.75,-86 899.75,-122"/>
<text text-anchor="middle" x="818" y="-99.8" font-family="Times,serif" font-size="14.00">ExmpleMasterComponent</text>
</g>
<!-- ExmpleMasterComponent&#45;&gt;CoreModule -->
<g id="edge7" class="edge">
<title>ExmpleMasterComponent&#45;&gt;CoreModule</title>
<path fill="none" stroke="black" d="M818,-122.03C818,-139.06 818,-162 818,-162 818,-162 1088.64,-162 1088.64,-162"/>
<polygon fill="black" stroke="black" points="1088.64,-165.5 1098.64,-162 1088.64,-158.5 1088.64,-165.5"/>
</g>
<!-- MolMainMenuComponent -->
<g id="node8" class="node">
<title>MolMainMenuComponent</title>
<polygon fill="#ffffb3" stroke="black" points="718.38,-122 551.62,-122 551.62,-86 718.38,-86 718.38,-122"/>
<text text-anchor="middle" x="635" y="-99.8" font-family="Times,serif" font-size="14.00">MolMainMenuComponent</text>
</g>
<!-- MolMainMenuComponent&#45;&gt;CoreModule -->
<g id="edge8" class="edge">
<title>MolMainMenuComponent&#45;&gt;CoreModule</title>
<path fill="none" stroke="black" d="M635,-122.22C635,-140.83 635,-167 635,-167 635,-167 1088.33,-167 1088.33,-167"/>
<polygon fill="black" stroke="black" points="1088.33,-170.5 1098.33,-167 1088.33,-163.5 1088.33,-170.5"/>
</g>
<!-- MolSidebarComponent -->
<g id="node9" class="node">
<title>MolSidebarComponent</title>
<polygon fill="#ffffb3" stroke="black" points="533.93,-122 386.07,-122 386.07,-86 533.93,-86 533.93,-122"/>
<text text-anchor="middle" x="460" y="-99.8" font-family="Times,serif" font-size="14.00">MolSidebarComponent</text>
</g>
<!-- MolSidebarComponent&#45;&gt;CoreModule -->
<g id="edge9" class="edge">
<title>MolSidebarComponent&#45;&gt;CoreModule</title>
<path fill="none" stroke="black" d="M460,-122.22C460,-142.37 460,-172 460,-172 460,-172 1088.56,-172 1088.56,-172"/>
<polygon fill="black" stroke="black" points="1088.56,-175.5 1098.56,-172 1088.56,-168.5 1088.56,-175.5"/>
</g>
<!-- MolTopMenuComponent -->
<g id="node10" class="node">
<title>MolTopMenuComponent</title>
<polygon fill="#ffffb3" stroke="black" points="367.88,-122 208.12,-122 208.12,-86 367.88,-86 367.88,-122"/>
<text text-anchor="middle" x="288" y="-99.8" font-family="Times,serif" font-size="14.00">MolTopMenuComponent</text>
</g>
<!-- MolTopMenuComponent&#45;&gt;CoreModule -->
<g id="edge10" class="edge">
<title>MolTopMenuComponent&#45;&gt;CoreModule</title>
<path fill="none" stroke="black" d="M288,-122.04C288,-143.66 288,-177 288,-177 288,-177 1088.48,-177 1088.48,-177"/>
<polygon fill="black" stroke="black" points="1088.48,-180.5 1098.48,-177 1088.48,-173.5 1088.48,-180.5"/>
</g>
<!-- PageNotFoundComponent -->
<g id="node11" class="node">
<title>PageNotFoundComponent</title>
<polygon fill="#ffffb3" stroke="black" points="189.82,-122 24.18,-122 24.18,-86 189.82,-86 189.82,-122"/>
<text text-anchor="middle" x="107" y="-99.8" font-family="Times,serif" font-size="14.00">PageNotFoundComponent</text>
</g>
<!-- PageNotFoundComponent&#45;&gt;CoreModule -->
<g id="edge11" class="edge">
<title>PageNotFoundComponent&#45;&gt;CoreModule</title>
<path fill="none" stroke="black" d="M107,-122.09C107,-145.13 107,-182 107,-182 107,-182 1088.52,-182 1088.52,-182"/>
<polygon fill="black" stroke="black" points="1088.52,-185.5 1098.52,-182 1088.52,-178.5 1088.52,-185.5"/>
</g>
<!-- CoreRoutingModule -->
<g id="node13" class="node">
<title>CoreRoutingModule</title>
<polygon fill="#8dd3c7" stroke="black" points="2179.88,-122 2176.88,-126 2155.88,-126 2152.88,-122 2048.12,-122 2048.12,-86 2179.88,-86 2179.88,-122"/>
<text text-anchor="middle" x="2114" y="-99.8" font-family="Times,serif" font-size="14.00">CoreRoutingModule</text>
</g>
<!-- CoreRoutingModule&#45;&gt;CoreModule -->
<g id="edge12" class="edge">
<title>CoreRoutingModule&#45;&gt;CoreModule</title>
<path fill="none" stroke="black" d="M2114,-122.09C2114,-145.13 2114,-182 2114,-182 2114,-182 1195.34,-182 1195.34,-182"/>
<polygon fill="black" stroke="black" points="1195.34,-178.5 1185.34,-182 1195.34,-185.5 1195.34,-178.5"/>
</g>
<!-- SharedModule -->
<g id="node14" class="node">
<title>SharedModule</title>
<polygon fill="#8dd3c7" stroke="black" points="2030.42,-122 2027.42,-126 2006.42,-126 2003.42,-122 1931.58,-122 1931.58,-86 2030.42,-86 2030.42,-122"/>
<text text-anchor="middle" x="1981" y="-99.8" font-family="Times,serif" font-size="14.00">SharedModule</text>
</g>
<!-- SharedModule&#45;&gt;CoreModule -->
<g id="edge13" class="edge">
<title>SharedModule&#45;&gt;CoreModule</title>
<path fill="none" stroke="black" d="M1981,-122.04C1981,-143.66 1981,-177 1981,-177 1981,-177 1195.34,-177 1195.34,-177"/>
<polygon fill="black" stroke="black" points="1195.34,-173.5 1185.34,-177 1195.34,-180.5 1195.34,-173.5"/>
</g>
</g>
</svg>
