<svg height="480pt" viewBox="0 -26 480.228 480" width="480pt" xmlns="http://www.w3.org/2000/svg"><path d="m474.226562 216.742188h-5.171874v-13.929688c0-3.3125-2.6875-6-6-6h-9.902344v-4.796875c0-3.316406-2.683594-6-6-6-3.3125 0-6 2.683594-6 6v4.796875h-10.199219c-3.3125 0-6 2.6875-6 6v13.929688h-4.40625v-18.398438c0-3.3125-2.683594-6-6-6h-11.5625v-14.199219c0-3.3125-2.683594-6-6-6h-25.609375v-62.902343h69.078125c3.316406 0 6-2.683594 6-6v-59.585938c-.023437-24.035156-19.503906-43.515625-43.539063-43.542969-.5 0-.992187.023438-1.488281.039063-.21875-.023438-.4375-.039063-.65625-.039063h-289.214843c-26.78125.085938-48.546876 21.640625-48.898438 48.421875l-2.179688 266.734375h-54.476562c-3.3125 0-6 2.6875-6 6v39.871094c0 35.847656 27.511719 65.253906 62.128906 67.425781.421875.09375.855469.140625 1.289063.144532h237.984375c.296875-.003907.597656-.027344.890625-.074219.945312.039062 1.894531.074219 2.847656.074219 34.453125 0 63.464844-27.425782 66.046875-62.4375.011719-.144532.015625-.292969.015625-.441407v-5.8125h103.023437c3.316407 0 6-2.683593 6-6v-131.277343c0-3.3125-2.683593-6-6-6zm-83.242187-24.398438h-53.199219v-8.199219h53.199219zm43.46875-148.6875v53.589844h-63.078125v-53.589844c.097656-17.347656 14.191406-31.363281 31.539062-31.363281 17.351563 0 31.441407 14.015625 31.539063 31.363281zm-368.21875 373.058594c-29.90625 0-54.234375-24.929688-54.234375-55.570313v-33.871093h226.871094v33.871093c-.058594 22.074219 10.617187 42.800781 28.621094 55.570313zm292.96875-51.101563c-2.222656 28.671875-25.929687 51.101563-54.101563 51.101563-29.90625 0-54.234374-24.929688-54.234374-55.570313v-39.871093c0-3.3125-2.683594-6-6-6h-172.390626l2.179688-266.621094c.269531-20.207032 16.691406-36.464844 36.898438-36.53125h261.390624c-8.664062 8.203125-13.574218 19.609375-13.570312 31.539062v128.484375h-27.59375c-3.3125 0-6 2.683594-6 6v14.199219h-11.554688c-3.3125 0-6 2.683594-6 6v155.679688c0 3.3125 2.6875 6 6 6h44.976563zm19.242187-17.585937h-8.644531v-27.953125h8.644531zm-20.644531 0h-7.480469v-27.953125h7.480469zm50.738281 0h-18.09375v-33.953125c0-3.3125-2.683593-6-6-6h-40.125c-3.3125 0-6 2.6875-6 6v33.945312h-18.09375v-143.679687h88.3125zm28.40625-139.199219h20.109376v7.925781h-20.109376zm31.28125 139.199219h-47.6875v-119.285156h47.6875zm0 0"/><path d="m334.589844 231.238281h59.609375c3.316406 0 6-2.683593 6-6 0-3.3125-2.683594-6-6-6h-59.609375c-3.3125 0-6 2.6875-6 6 0 3.316407 2.6875 6 6 6zm0 0"/><path d="m334.589844 258.660156h59.609375c3.316406 0 6-2.683594 6-6 0-3.3125-2.683594-6-6-6h-59.609375c-3.3125 0-6 2.6875-6 6 0 3.316406 2.6875 6 6 6zm0 0"/><path d="m334.589844 286.082031h59.609375c3.316406 0 6-2.683593 6-6 0-3.3125-2.683594-6-6-6h-59.609375c-3.3125 0-6 2.6875-6 6 0 3.316407 2.6875 6 6 6zm0 0"/><path d="m431.160156 285.488281h25.632813c3.316406 0 6-2.6875 6-6 0-3.316406-2.683594-6-6-6h-25.632813c-3.3125 0-6 2.683594-6 6 0 3.3125 2.6875 6 6 6zm0 0"/><path d="m431.160156 308.140625h25.632813c3.316406 0 6-2.6875 6-6s-2.683594-6-6-6h-25.632813c-3.3125 0-6 2.6875-6 6s2.6875 6 6 6zm0 0"/><path d="m456.792969 320.578125h-25.632813c-3.3125 0-6 2.6875-6 6 0 3.316406 2.6875 6 6 6h25.632813c3.316406 0 6-2.683594 6-6 0-3.3125-2.683594-6-6-6zm0 0"/><path d="m431.160156 261.046875h25.632813c3.316406 0 6-2.6875 6-6 0-3.316406-2.683594-6-6-6h-25.632813c-3.3125 0-6 2.683594-6 6 0 3.3125 2.6875 6 6 6zm0 0"/><path d="m113.113281 112.421875h13.136719c3.3125 0 6-2.6875 6-6 0-3.316406-2.6875-6-6-6h-13.136719c-3.3125 0-6 2.683594-6 6 0 3.3125 2.6875 6 6 6zm0 0"/><path d="m302.574219 171.066406h-77.644531c-3.3125 0-6 2.683594-6 6 0 3.3125 2.6875 6 6 6h77.644531c3.3125 0 6-2.6875 6-6 0-3.316406-2.6875-6-6-6zm0 0"/><path d="m149.179688 171.066406c-3.3125 0-6 2.683594-6 6 0 3.3125 2.6875 6 6 6h53.375c3.316406 0 6-2.6875 6-6 0-3.316406-2.683594-6-6-6zm0 0"/><path d="m113.113281 183.066406h10.277344c3.3125 0 6-2.6875 6-6 0-3.316406-2.6875-6-6-6h-10.277344c-3.3125 0-6 2.683594-6 6 0 3.3125 2.6875 6 6 6zm0 0"/><path d="m218.375 241.714844h-105.261719c-3.3125 0-6 2.683594-6 6 0 3.3125 2.6875 6 6 6h105.261719c3.316406 0 6-2.6875 6-6 0-3.316406-2.683594-6-6-6zm0 0"/><path d="m265.167969 112.421875h37.402343c3.3125 0 6-2.6875 6-6 0-3.316406-2.6875-6-6-6h-37.402343c-3.3125 0-6 2.683594-6 6 0 3.3125 2.6875 6 6 6zm0 0"/><path d="m148.191406 112.421875h94.691406c3.316407 0 6-2.6875 6-6 0-3.316406-2.683593-6-6-6h-94.691406c-3.3125 0-6 2.683594-6 6 0 3.3125 2.6875 6 6 6zm0 0"/></svg>