<svg height="492pt" viewBox="0 -42 492 492" width="492pt" xmlns="http://www.w3.org/2000/svg"><path d="m448.5 0h-281.25c-24.011719.0273438-43.472656 19.488281-43.5 43.5v91.851562h-51.601562c-18.011719.0625-32.648438 14.558594-32.878907 32.570313l-1.351562 164.945313h-31.917969c-3.3125 0-6 2.683593-6 6v24.984374c0 23.601563 18.085938 42.964844 40.871094 44.480469.367187.070313.738281.105469 1.113281.109375h149.148437c.230469-.003906.460938-.015625.691407-.042968.546875.019531 1.101562.042968 1.652343.042968 21 0 38.929688-15.417968 42.914063-35.957031 11.566406-1.183594 22.53125-5.734375 31.539063-13.082031l28.386718 28.386718c1.511719 1.535157 3.730469 2.144532 5.816406 1.589844 2.082032-.550781 3.707032-2.179687 4.261719-4.261718.550781-2.082032-.054687-4.300782-1.59375-5.8125l-28.386719-28.382813c6.183594-7.53125 10.402344-16.480469 12.277344-26.039063h159.808594c24.011719-.027343 43.472656-19.488281 43.5-43.5v-237.882812c-.027344-24.011719-19.488281-43.4726562-43.5-43.5zm-404.75 396.441406c-17.507812 0-31.75-14.621094-31.75-32.589844v-18.984374h137.699219v18.984374c-.023438 12.316407 5.015625 24.101563 13.9375 32.589844zm149.699219 0c-17.507813 0-31.75-14.621094-31.75-32.589844v-24.984374c0-3.316407-2.683594-6-6-6h-105.777344l1.347656-164.835938c.148438-11.4375 9.445313-20.640625 20.882813-20.679688h158.859375c-3.761719 5.070313-5.789063 11.214844-5.78125 17.527344v89.128906c-21.015625 1.8125-39.507813 14.585938-48.636719 33.601563-.921875-.554687-1.980469-.847656-3.058594-.847656h-18.519531c-3.3125 0-6 2.6875-6 6 0 3.316406 2.6875 6 6 6h17.554687c-1.183593 4.753906-1.78125 9.632812-1.773437 14.527343-.015625 30.472657 22.996094 56.023438 53.296875 59.195313-3.714844 13.835937-16.171875 23.957031-30.640625 23.957031zm43.777343-231.5625c0-9.679687 7.84375-17.527344 17.523438-17.527344s17.527344 7.847657 17.527344 17.527344v43.882813h-35.046875zm40.335938 153.332032c0 .027343-.007812.050781-.011719.078124-1.113281 10.820313-5.9375 20.921876-13.652343 28.59375-8.722657 8.722657-20.5 13.710938-32.839844 13.90625-.074219 0-.152344.003907-.222656.007813-21.574219.246094-40.601563-14.074219-46.339844-34.871094-5.738282-20.792969 3.25-42.84375 21.894531-53.699219 18.644531-10.855468 42.257813-7.785156 57.507813 7.46875 8.941406 8.894532 13.953124 20.992188 13.917968 33.601563-.003906 1.640625-.085937 3.28125-.253906 4.914063zm170.9375-5.332032h-158.695312c-.195313-30.027344-22.746094-55.203125-52.574219-58.683594v-33.433593h41.050781c3.3125 0 6-2.6875 6-6v-49.882813c-.019531-16.300781-13.226562-29.507812-29.527344-29.527344-.300781 0-.597656.015626-.898437.023438-.148438-.011719-.300781-.023438-.449219-.023438h-117.65625v-38.121093h344.25v184.148437c-.019531 17.390625-14.109375 31.480469-31.5 31.5zm31.5-227.648437h-344.25v-41.730469c.019531-17.390625 14.109375-31.480469 31.5-31.5h281.25c17.390625.019531 31.480469 14.109375 31.5 31.5zm0 0"/><path d="m227.648438 29.792969h-.058594c-10.585938-.015625-19.179688 8.554687-19.195313 19.136719-.015625 10.585937 8.550781 19.179687 19.136719 19.195312h.0625c10.554688-.011719 19.117188-8.550781 19.164062-19.105469.019532-10.578125-8.527343-19.179687-19.109374-19.226562zm-.058594 26.332031h-.023438c-3.957031-.003906-7.160156-3.21875-7.152344-7.175781.003907-3.957031 3.21875-7.160157 7.175782-7.15625h.023437c3.957031.007812 7.160157 3.21875 7.15625 7.179687-.007812 3.957032-3.222656 7.160156-7.179687 7.152344zm0 0"/><path d="m168.511719 29.609375h-.0625c-10.585938-.015625-19.179688 8.550781-19.195313 19.136719-.015625 10.585937 8.550782 19.179687 19.136719 19.195312h.058594c10.585937.015625 19.179687-8.550781 19.199219-19.136718.015624-10.585938-8.550782-19.179688-19.136719-19.195313zm7.105469 19.1875c-.019532 3.949219-3.21875 7.140625-7.167969 7.144531h-.019531c-3.960938-.007812-7.164063-3.21875-7.15625-7.175781.003906-3.960937 3.21875-7.164063 7.175781-7.15625h.023437c3.957032.011719 7.15625 3.230469 7.144532 7.1875zm0 0"/><path d="m286.789062 29.980469h-.058593c-10.585938-.019531-19.179688 8.550781-19.195313 19.136719-.015625 10.582031 8.550782 19.175781 19.136719 19.195312h.058594c10.585937.015625 19.179687-8.554688 19.195312-19.136719.019531-10.585937-8.550781-19.179687-19.136719-19.195312zm4.992188 24.246093c-1.339844 1.339844-3.15625 2.089844-5.050781 2.085938h-.023438c-3.957031-.007812-7.160156-3.222656-7.152343-7.179688.003906-3.957031 3.21875-7.160156 7.175781-7.152343h.023437c2.898438.007812 5.503906 1.761719 6.605469 4.445312 1.097656 2.679688.476563 5.757813-1.578125 7.800781zm0 0"/><path d="m73.132812 210.214844h25.417969c3.316407 0 6-2.6875 6-6 0-3.316406-2.683593-6-6-6h-25.417969c-3.316406 0-6 2.683594-6 6 0 3.3125 2.683594 6 6 6zm0 0"/><path d="m198.136719 242.488281h-26.78125c-3.3125 0-6 2.6875-6 6 0 3.316407 2.6875 6 6 6h26.78125c3.3125 0 6-2.683593 6-6 0-3.3125-2.6875-6-6-6zm0 0"/><path d="m154.453125 248.488281c0-3.3125-2.6875-6-6-6h-21.652344c-3.316406 0-6 2.6875-6 6 0 3.316407 2.683594 6 6 6h21.648438c3.316406.003907 6.003906-2.683593 6.003906-6zm0 0"/><path d="m73.132812 254.488281h31.507813c3.3125 0 6-2.683593 6-6 0-3.3125-2.6875-6-6-6h-31.507813c-3.316406 0-6 2.6875-6 6 0 3.316407 2.683594 6 6 6zm0 0"/><path d="m133.101562 286.765625h-59.96875c-3.316406 0-6 2.683594-6 6 0 3.3125 2.683594 6 6 6h59.96875c3.3125 0 6-2.6875 6-6 0-3.316406-2.6875-6-6-6zm0 0"/><path d="m189.109375 210.214844h9.027344c3.3125 0 6-2.6875 6-6 0-3.316406-2.6875-6-6-6h-9.027344c-3.316406 0-6 2.683594-6 6 0 3.3125 2.683594 6 6 6zm0 0"/><path d="m120.183594 210.214844h47.078125c3.3125 0 6-2.6875 6-6 0-3.316406-2.6875-6-6-6h-47.078125c-3.3125 0-6 2.683594-6 6 0 3.3125 2.6875 6 6 6zm0 0"/></svg>