<svg height="491pt" viewBox="-23 0 491 491.99963" width="491pt" xmlns="http://www.w3.org/2000/svg"><path d="m81.171875 393.148438c2.117187 2.476562 5.824219 2.8125 8.351563.757812l59.796874-48.65625c2.519532-2.101562 2.878907-5.839844.808594-8.386719-2.074218-2.546875-5.804687-2.957031-8.378906-.917969l-55.261719 44.953126-21.875-25.613282c-1.386719-1.640625-3.546875-2.417968-5.664062-2.027344-2.113281.386719-3.859375 1.878907-4.574219 3.90625-.714844 2.03125-.289062 4.285157 1.113281 5.914063zm0 0"/><path d="m85.53125 485.757812 13.175781 5.742188c1.523438.664062 3.25.667969 4.777344.007812l14.847656-6.410156c5.847657-2.480468 11.527344-5.347656 17-8.582031h285.359375c14-.015625 25.339844-11.359375 25.355469-25.355469v-402.578125c-.015625-13.996093-11.355469-25.339843-25.355469-25.355469h-129.609375c-6.78125-14.191406-21.113281-23.226562-36.839843-23.226562-15.730469 0-30.058594 9.035156-36.839844 23.226562h-129.613282c-13.996093.015626-25.339843 11.355469-25.355468 25.355469v209.800781l-58.816406 32.238282c-1.921876 1.054687-3.117188 3.070312-3.117188 5.261718v60.035157c.058594 56.320312 33.425781 107.273437 85.03125 129.839843zm335.160156-450.53125c7.375.007813 13.347656 5.980469 13.355469 13.355469v402.578125c-.007813 7.375-5.980469 13.347656-13.355469 13.355469h-268.070312c14.105468-11.417969 25.886718-25.4375 34.699218-41.300781h147.660157c.78125-.003906 1.5625-.0625 2.339843-.171875 2.164063.535156 4.445313-.1875 5.910157-1.871094 1.546875-.824219 2.960937-1.875 4.199219-3.113281l48.566406-48.570313c3.316406-3.296875 5.171875-7.78125 5.160156-12.453125v-264.828125c-.011719-8.652343-7.019531-15.664062-15.671875-15.675781h-26.53125v-18.273438c0-3.3125-2.6875-6-6-6h-57.871094v-11.417968c-.003906-1.878906-.140625-3.753906-.402343-5.613282zm-218.785156 255.363282-82.582031-44.011719v-154.371094c0-2.03125 1.644531-3.675781 3.675781-3.675781h26.53125v16.175781c0 3.316407 2.6875 6 6 6h197.421875c3.3125 0 6-2.683593 6-6v-16.175781h26.53125c2.027344 0 3.675781 1.644531 3.675781 3.675781v263.394531h-31.078125c-13.996093.011719-25.339843 11.355469-25.355469 25.351563v30.257813h-139.46875c7.808594-17.863282 11.835938-37.148438 11.828126-56.644532v-58.683594c0-2.214843-1.222657-4.253906-3.179688-5.292968zm179.007812 77.011718-36.1875 36.1875v-22.835937c.007813-7.371094 5.980469-13.347656 13.355469-13.351563zm-126.671874-355.601562c15.917968.019531 28.820312 12.917969 28.839843 28.839844v17.417968c0 3.3125 2.683594 6 6 6h57.871094v34.449219h-185.421875v-34.449219h57.871094c3.3125 0 6-2.6875 6-6v-17.417968c.019531-15.921875 12.917968-28.820313 28.839844-28.839844zm-179.808594 36.582031c.007812-7.375 5.984375-13.347656 13.355468-13.355469h126.007813c-.261719 1.859376-.394531 3.734376-.398437 5.613282v11.417968h-57.867188c-3.3125 0-6 2.6875-6 6v18.273438h-26.53125c-8.652344.011719-15.664062 7.023438-15.675781 15.675781v147.980469l-3.0625-1.632812c-1.785157-.953126-3.929688-.9375-5.703125.035156l-24.125 13.21875zm-61.933594 250.855469 58.773438-32.210938.042968-.027343 30.164063-16.527344 8.957031 4.769531.0625.03125 82.585938 44.011719v55.082031c-.011719 52.195313-31.328126 99.289063-79.453126 119.488282l-.042968.015624-12.472656 5.386719-10.78125-4.699219c-47.234376-20.652343-77.78125-67.289062-77.835938-118.839843zm0 0"/><path d="m345.671875 171.851562h7.277344c3.3125 0 6-2.6875 6-6s-2.6875-6-6-6h-7.277344c-3.3125 0-6 2.6875-6 6s2.6875 6 6 6zm0 0"/><path d="m216.355469 171.851562h106.660156c3.3125 0 6-2.6875 6-6s-2.6875-6-6-6h-106.660156c-3.3125 0-6 2.6875-6 6s2.6875 6 6 6zm0 0"/><path d="m155.53125 171.851562h37.707031c3.316407 0 6-2.6875 6-6s-2.683593-6-6-6h-37.707031c-3.3125 0-6 2.6875-6 6s2.6875 6 6 6zm0 0"/><path d="m326.5625 218.03125c0 3.3125 2.6875 6 6 6h20.390625c3.3125 0 6-2.6875 6-6s-2.6875-6-6-6h-20.390625c-3.3125 0-6 2.6875-6 6zm0 0"/><path d="m310.488281 224.03125c3.3125 0 6-2.6875 6-6s-2.6875-6-6-6h-27.789062c-3.3125 0-6 2.6875-6 6s2.6875 6 6 6zm0 0"/><path d="m269.300781 218.03125c0-3.3125-2.6875-6-6-6h-107.769531c-3.3125 0-6 2.6875-6 6s2.6875 6 6 6h107.769531c3.3125 0 6-2.6875 6-6zm0 0"/><path d="m352.953125 267.464844h-112.746094c-3.316406 0-6 2.683594-6 6 0 3.3125 2.683594 6 6 6h112.746094c3.3125 0 6-2.6875 6-6 0-3.316406-2.6875-6-6-6zm0 0"/><path d="m224.128906 273.464844c0-3.316406-2.6875-6-6-6h-26.792968c-3.3125 0-6 2.683594-6 6 0 3.3125 2.6875 6 6 6h26.792968c3.3125 0 6-2.6875 6-6zm0 0"/><path d="m352.953125 318.699219h-72.65625c-3.3125 0-6 2.6875-6 6s2.6875 6 6 6h72.65625c3.3125 0 6-2.6875 6-6s-2.6875-6-6-6zm0 0"/><path d="m258.222656 318.699219h-38.101562c-3.3125 0-6 2.6875-6 6s2.6875 6 6 6h38.101562c3.3125 0 6-2.6875 6-6s-2.6875-6-6-6zm0 0"/></svg>