<?xml version="1.0" encoding="iso-8859-1"?>
<!-- Generator: Adobe Illustrator 19.0.0, SVG Export Plug-In . SVG Version: 6.00 Build 0)  -->
<svg version="1.1" id="Capa_1" xmlns="http://www.w3.org/2000/svg" xmlns:xlink="http://www.w3.org/1999/xlink" x="0px" y="0px"
	 viewBox="0 0 512 512" style="enable-background:new 0 0 512 512;" xml:space="preserve">
<g>
	<g>
		<path d="M176,326c-5.52,0-10,4.48-10,10c0,5.52,4.48,10,10,10s10-4.48,10-10C186,330.48,181.52,326,176,326z"/>
	</g>
</g>
<g>
	<g>
		<path d="M416,40c-10.953,0-100.616,0-111.005,0C300.35,17.206,280.146,0,256,0s-44.35,17.206-48.995,40
			C196.616,40,106.953,40,96,40c-16.542,0-30,13.458-30,30v412c0,16.542,13.458,30,30,30h320c16.542,0,30-13.458,30-30V70
			C446,53.458,432.542,40,416,40z M186,60h30c5.522,0,10-4.478,10-10c0-16.542,13.458-30,30-30s30,13.458,30,30
			c0,5.522,4.478,10,10,10h30v20H186V60z M386,100v352H126V100H386z M426,482c0,5.514-4.486,10-10,10H96c-5.514,0-10-4.486-10-10V70
			c0-5.514,4.486-10,10-10h70v20h-50c-5.522,0-10,4.478-10,10v372c0,5.522,4.478,10,10,10h280c5.522,0,10-4.478,10-10V90
			c0-5.522-4.478-10-10-10h-50V60h70c5.514,0,10,4.486,10,10V482z"/>
	</g>
</g>
<g>
	<g>
		<path d="M336,386H176c-5.522,0-10,4.478-10,10c0,5.522,4.478,10,10,10h160c5.522,0,10-4.478,10-10
			C346,390.478,341.522,386,336,386z"/>
	</g>
</g>
<g>
	<g>
		<path d="M336,326H216c-5.522,0-10,4.478-10,10c0,5.522,4.478,10,10,10h120c5.522,0,10-4.478,10-10
			C346,330.478,341.522,326,336,326z"/>
	</g>
</g>
<g>
	<g>
		<path d="M256,146c-38.598,0-70,31.402-70,70c0,38.598,31.402,70,70,70s70-31.402,70-70C326,177.402,294.598,146,256,146z M256,266
			c-27.57,0-50-22.43-50-50s22.43-50,50-50s50,22.43,50,50S283.57,266,256,266z"/>
	</g>
</g>
<g>
	<g>
		<path d="M276,206h-10v-10c0-5.522-4.478-10-10-10c-5.522,0-10,4.478-10,10v10h-10c-5.522,0-10,4.478-10,10c0,5.522,4.478,10,10,10
			h10v10c0,5.522,4.478,10,10,10c5.522,0,10-4.478,10-10v-10h10c5.522,0,10-4.478,10-10C286,210.478,281.522,206,276,206z"/>
	</g>
</g>
<g>
</g>
<g>
</g>
<g>
</g>
<g>
</g>
<g>
</g>
<g>
</g>
<g>
</g>
<g>
</g>
<g>
</g>
<g>
</g>
<g>
</g>
<g>
</g>
<g>
</g>
<g>
</g>
<g>
</g>
</svg>
