<?xml version="1.0" encoding="iso-8859-1"?>
<!-- Generator: Adobe Illustrator 19.0.0, SVG Export Plug-In . SVG Version: 6.00 Build 0)  -->
<svg version="1.1" id="Capa_1" xmlns="http://www.w3.org/2000/svg" xmlns:xlink="http://www.w3.org/1999/xlink" x="0px" y="0px"
	 viewBox="0 0 512.001 512.001" style="enable-background:new 0 0 512.001 512.001;" xml:space="preserve">
<g>
	<g>
		<path d="M159.779,226.043c-5.512,0-9.986,4.474-9.986,9.986c0,5.512,4.474,9.986,9.986,9.986s9.986-4.474,9.986-9.986
			C169.765,230.517,165.291,226.043,159.779,226.043z"/>
	</g>
</g>
<g>
	<g>
		<path d="M491.869,349.88c0-21.829,12.58-53.618,17.634-72.72c12.608-47.645-23.986-96.358-76.292-97.033
			c-0.043,0-0.086-0.001-0.129-0.001h-73.838c-0.043,0-0.086,0-0.129,0.001c-17.13,0.221-33.167,5.577-46.482,15.335
			c-5.66-13.529-14.603-25.635-26.078-35.021c-13.4-10.961-29.761-17.774-46.887-19.699v-10.566
			c0-16.519-13.439-29.958-29.959-29.958h-19.972V60.272h39.945c5.515,0,9.986-4.471,9.986-9.986V40.3h45.795l17.047,17.047
			c1.95,1.95,4.506,2.925,7.061,2.925s5.112-0.975,7.061-2.925c3.9-3.9,3.9-10.223,0-14.123L296.66,23.252
			c-1.872-1.872-4.413-2.925-7.061-2.925h-51.648C233.828,8.704,222.729,0.354,209.71,0.354h-99.862
			c-16.519,0-29.958,13.439-29.958,29.959v19.972c0,5.515,4.471,9.986,9.986,9.986h39.945v39.945h-19.972
			c-16.519,0-29.958,13.439-29.958,29.958v10.544C35.015,145.703,0,183.855,0,230.036v5.992c0,9.955,0,215.813,0,225.687
			c0,27.532,22.399,49.931,49.931,49.931h219.696c15.414,0,29.583-7.008,38.898-18.601c14.565,12.142,33.191,18.501,50.718,18.501
			l72.709,0.01c54.518-0.437,89.919-49.935,77.553-96.835C504.232,394.72,491.869,371.596,491.869,349.88z M99.862,40.3v-9.986
			c0-5.506,4.48-9.986,9.986-9.986h99.862c5.506,0,9.986,4.48,9.986,9.986V40.3h-39.945h-39.945H99.862z M169.765,60.272v39.945
			h-19.972V60.272H169.765z M99.862,130.176c0-5.506,4.48-9.986,9.986-9.986h29.958h39.945h29.958c5.506,0,9.986,4.48,9.986,9.986
			v9.986H99.862V130.176z M19.972,246.014h99.862c5.515,0,9.986-4.471,9.986-9.986c0-5.515-4.471-9.986-9.986-9.986h-99.74
			c2.078-36.692,32.578-65.908,69.781-65.908h139.806c31.177,0,58.705,21.026,67.197,50.618c-3.735,4.762-6.885,9.873-9.4,15.291
			h-87.755c-5.515,0-9.986,4.471-9.986,9.986c0,5.515,4.471,9.886,9.986,9.886h81.582c-1.69,10.336-1.197,21.004,1.515,31.244
			c5.05,19.091,17.634,50.891,17.634,72.721c0,18.422-8.909,37.86-14.919,55.913H19.972V246.014z M269.627,491.675H49.931
			c-16.519,0-29.958-13.439-29.958-29.959v-35.95h260.821c-1.942,18.31,2.972,36.961,13.899,52.346
			C289.229,486.485,279.893,491.675,269.627,491.675z M432.951,491.676l-72.58,0.009l-1-0.009
			c-38.848-0.5-67.138-36.566-56.869-73.208c5.206-18.626,17.924-43.237,17.924-68.588c0-25.63-13.248-58.745-18.299-77.832
			c-9.38-35.416,18.399-71.514,57.184-72.049h73.7c39.037,0.54,66.486,36.893,57.183,72.052
			c-5.048,19.087-18.298,52.201-18.298,77.83c0,26.028,13.333,51.114,18.296,69.933C499.478,455.034,472.018,491.17,432.951,491.676
			z"/>
	</g>
</g>
<g>
	<g>
		<path d="M451.934,349.871c0-33.318,15.873-71.295,18.952-82.929c6.177-23.366-13.028-46.543-37.673-46.87
			c-0.044,0-0.088-0.001-0.133-0.001h-73.318c-0.042,0-0.083,0-0.125,0.001c-26.306,0.33-44.145,24.384-38.197,46.88
			c3.231,12.172,18.959,49.564,18.959,82.919c0,34.222-15.893,63.406-18.953,75.032c-5.747,21.757,10.827,46.352,38.797,46.708
			c0.043,0,0.085,0.001,0.128,0.001c0.085,0,0.119,0,0.127,0c-0.016,0-0.085,0-0.115,0c0.311,0,6.711-0.001,72.304-0.011
			c26.289-0.331,44.126-24.276,38.2-46.685C467.503,412.09,451.934,384.799,451.934,349.871z M432.399,451.732l-71.958,0.008
			c-14.375-0.215-22.208-12.18-19.681-21.745c2.479-9.421,19.612-41.641,19.612-80.124c0-37.217-16.57-76.527-19.625-88.034
			c-2.63-9.947,6.022-21.695,19.083-21.894h73.179c11.689,0.192,21.367,11.307,18.569,21.892
			c-3.143,11.88-19.616,50.571-19.616,88.036c0,38.66,17.006,70.259,19.616,80.146C454.154,439.76,445.817,451.563,432.399,451.732z
			"/>
	</g>
</g>
<g>
	<g>
		<path d="M159.779,265.988c-33.038,0-59.917,26.879-59.917,59.917c0,33.038,26.879,59.917,59.917,59.917
			s59.917-26.879,59.917-59.917C219.696,292.866,192.817,265.988,159.779,265.988z M159.779,365.849
			c-22.026,0-39.945-17.919-39.945-39.945c0-22.026,17.919-39.945,39.945-39.945s39.945,17.919,39.945,39.945
			C199.723,347.93,181.804,365.849,159.779,365.849z"/>
	</g>
</g>
<g>
</g>
<g>
</g>
<g>
</g>
<g>
</g>
<g>
</g>
<g>
</g>
<g>
</g>
<g>
</g>
<g>
</g>
<g>
</g>
<g>
</g>
<g>
</g>
<g>
</g>
<g>
</g>
<g>
</g>
</svg>
