<?xml version="1.0" encoding="iso-8859-1"?>
<!-- Generator: Adobe Illustrator 19.0.0, SVG Export Plug-In . SVG Version: 6.00 Build 0)  -->
<svg version="1.1" id="Capa_1" xmlns="http://www.w3.org/2000/svg" xmlns:xlink="http://www.w3.org/1999/xlink" x="0px" y="0px"
	 viewBox="0 0 512 512" style="enable-background:new 0 0 512 512;" xml:space="preserve">
<g>
	<g>
		<path d="M290,176c-5.52,0-10,4.48-10,10s4.48,10,10,10c5.52,0,10-4.48,10-10S295.52,176,290,176z"/>
	</g>
</g>
<g>
	<g>
		<path d="M290,236c-5.52,0-10,4.48-10,10s4.48,10,10,10c5.52,0,10-4.48,10-10S295.52,236,290,236z"/>
	</g>
</g>
<g>
	<g>
		<path d="M176.665,290.905C172.429,287.118,170,281.685,170,276s2.429-11.118,6.665-14.905c4.9-4.381,2.854-9.867,3.335-15.095v-60
			c0-27.867-16.372-51.977-40-63.232V106c0-13.036-8.361-24.152-20-28.28V46c0-5.523-4.477-10-10-10H70c-5.523,0-10,4.477-10,10
			v31.72C48.361,81.848,40,92.964,40,106v16.768C16.372,134.023,0,158.133,0,186c0,10.503,0,60.015,0,67.64
			c0,2.846,1.213,5.558,3.335,7.455C7.571,264.882,10,270.315,10,276s-2.429,11.118-6.665,14.905C1.213,292.802,0,295.514,0,298.36
			C0,318.84,0,412.517,0,426c0,27.57,22.43,50,50,50h80c27.57,0,50-22.43,50-50c0-13.629,0-107.182,0-127.64
			C180,295.514,178.787,292.802,176.665,290.905z M80,56h20v20H80V56z M60,106c0-5.514,4.486-10,10-10h40c5.514,0,10,4.486,10,10v10
			H60V106z M160,426c0,16.542-13.458,30-30,30H50c-16.542,0-30-13.458-30-30V316h140V426z M24.637,255.9h130.726
			C151.888,261.921,150,268.913,150,276c0,7.087,1.888,13.979,5.363,20H24.637C28.112,289.979,30,283.087,30,276
			C30,268.913,28.112,261.921,24.637,255.9z M160,236H20v-50c0-27.57,22.43-50,50-50h40c27.57,0,50,22.43,50,50V236z"/>
	</g>
</g>
<g>
	<g>
		<path d="M482,76c-15.718,0-61.313,0-77.005,0C400.35,53.206,380.146,36,356,36s-44.35,17.206-48.995,40
			c-15.689,0-61.287,0-77.005,0c-16.542,0-30,13.458-30,30v340c0,16.542,13.458,30,30,30h252c16.542,0,30-13.458,30-30V106
			C512,89.458,498.542,76,482,76z M300,96h16c5.522,0,10-4.477,10-10c0-16.542,13.458-30,30-30s30,13.458,30,30
			c0,5.523,4.478,10,10,10h16v20H300V96z M452,136v280H260V136H452z M492,446c0,5.514-4.486,10-10,10H230c-5.514,0-10-4.486-10-10
			V106c0-5.514,4.486-10,10-10h50v20h-30c-5.522,0-10,4.477-10,10v300c0,5.523,4.478,10,10,10h212c5.522,0,10-4.477,10-10V126
			c0-5.523-4.478-10-10-10h-30V96h50c5.514,0,10,4.486,10,10V446z"/>
	</g>
</g>
<g>
	<g>
		<path d="M422,176h-92c-5.522,0-10,4.477-10,10s4.478,10,10,10h92c5.522,0,10-4.477,10-10S427.522,176,422,176z"/>
	</g>
</g>
<g>
	<g>
		<path d="M422,296H290c-5.522,0-10,4.477-10,10s4.478,10,10,10h132c5.522,0,10-4.477,10-10S427.522,296,422,296z"/>
	</g>
</g>
<g>
	<g>
		<path d="M422,356H290c-5.522,0-10,4.477-10,10s4.478,10,10,10h132c5.522,0,10-4.477,10-10S427.522,356,422,356z"/>
	</g>
</g>
<g>
	<g>
		<path d="M422,236h-92c-5.522,0-10,4.477-10,10s4.478,10,10,10h92c5.522,0,10-4.477,10-10S427.522,236,422,236z"/>
	</g>
</g>
<g>
</g>
<g>
</g>
<g>
</g>
<g>
</g>
<g>
</g>
<g>
</g>
<g>
</g>
<g>
</g>
<g>
</g>
<g>
</g>
<g>
</g>
<g>
</g>
<g>
</g>
<g>
</g>
<g>
</g>
</svg>
