<?xml version="1.0" encoding="UTF-8" standalone="no"?>
<!DOCTYPE svg PUBLIC "-//W3C//DTD SVG 1.1//EN"
 "http://www.w3.org/Graphics/SVG/1.1/DTD/svg11.dtd">
<!-- Generated by graphviz version 2.47.0 (20210316.0004)
 -->
<!-- Title: dependencies Pages: 1 -->
<svg width="944pt" height="211pt"
 viewBox="0.00 0.00 944.00 211.00" xmlns="http://www.w3.org/2000/svg" xmlns:xlink="http://www.w3.org/1999/xlink">
<g id="graph0" class="graph" transform="scale(1 1) rotate(0) translate(4 207)">
<title>dependencies</title>
<polygon fill="white" stroke="transparent" points="-4,4 -4,-207 940,-207 940,4 -4,4"/>
<text text-anchor="start" x="447.01" y="-42.4" font-family="sans-serif" font-weight="bold" font-size="14.00">Legend</text>
<polygon fill="#ffffb3" stroke="transparent" points="234,-10 234,-30 254,-30 254,-10 234,-10"/>
<text text-anchor="start" x="257.63" y="-15.4" font-family="sans-serif" font-size="14.00"> &#160;Declarations</text>
<polygon fill="#8dd3c7" stroke="transparent" points="347,-10 347,-30 367,-30 367,-10 347,-10"/>
<text text-anchor="start" x="370.73" y="-15.4" font-family="sans-serif" font-size="14.00"> &#160;Module</text>
<polygon fill="#80b1d3" stroke="transparent" points="433,-10 433,-30 453,-30 453,-10 433,-10"/>
<text text-anchor="start" x="456.78" y="-15.4" font-family="sans-serif" font-size="14.00"> &#160;Bootstrap</text>
<polygon fill="#fdb462" stroke="transparent" points="530,-10 530,-30 550,-30 550,-10 530,-10"/>
<text text-anchor="start" x="553.67" y="-15.4" font-family="sans-serif" font-size="14.00"> &#160;Providers</text>
<polygon fill="#fb8072" stroke="transparent" points="626,-10 626,-30 646,-30 646,-10 626,-10"/>
<text text-anchor="start" x="649.73" y="-15.4" font-family="sans-serif" font-size="14.00"> &#160;Exports</text>
<g id="clust1" class="cluster">
<title>cluster_PisModule</title>
<polygon fill="none" stroke="black" stroke-dasharray="1,5" points="8,-70 8,-195 928,-195 928,-70 8,-70"/>
</g>
<g id="clust2" class="cluster">
<title>cluster_PisModule_declarations</title>
<polygon fill="none" stroke="black" points="278,-78 278,-130 920,-130 920,-78 278,-78"/>
</g>
<g id="clust7" class="cluster">
<title>cluster_PisModule_imports</title>
<polygon fill="none" stroke="black" points="16,-78 16,-130 270,-130 270,-78 16,-78"/>
</g>
<!-- InfoComponent -->
<g id="node1" class="node">
<title>InfoComponent</title>
<polygon fill="#ffffb3" stroke="black" points="912.15,-122 807.85,-122 807.85,-86 912.15,-86 912.15,-122"/>
<text text-anchor="middle" x="860" y="-99.8" font-family="Times,serif" font-size="14.00">InfoComponent</text>
</g>
<!-- PisModule -->
<g id="node5" class="node">
<title>PisModule</title>
<polygon fill="#8dd3c7" stroke="black" points="477.17,-187 474.17,-191 453.17,-191 450.17,-187 400.83,-187 400.83,-151 477.17,-151 477.17,-187"/>
<text text-anchor="middle" x="439" y="-164.8" font-family="Times,serif" font-size="14.00">PisModule</text>
</g>
<!-- InfoComponent&#45;&gt;PisModule -->
<g id="edge1" class="edge">
<title>InfoComponent&#45;&gt;PisModule</title>
<path fill="none" stroke="black" d="M860,-122.28C860,-143.32 860,-175 860,-175 860,-175 487.48,-175 487.48,-175"/>
<polygon fill="black" stroke="black" points="487.48,-171.5 477.48,-175 487.48,-178.5 487.48,-171.5"/>
</g>
<!-- OrangtuaComponent -->
<g id="node2" class="node">
<title>OrangtuaComponent</title>
<polygon fill="#ffffb3" stroke="black" points="789.92,-122 656.08,-122 656.08,-86 789.92,-86 789.92,-122"/>
<text text-anchor="middle" x="723" y="-99.8" font-family="Times,serif" font-size="14.00">OrangtuaComponent</text>
</g>
<!-- OrangtuaComponent&#45;&gt;PisModule -->
<g id="edge2" class="edge">
<title>OrangtuaComponent&#45;&gt;PisModule</title>
<path fill="none" stroke="black" d="M723,-122.02C723,-139.37 723,-163 723,-163 723,-163 487.3,-163 487.3,-163"/>
<polygon fill="black" stroke="black" points="487.3,-159.5 477.3,-163 487.3,-166.5 487.3,-159.5"/>
</g>
<!-- PendaftaranPasienBaruComponent -->
<g id="node3" class="node">
<title>PendaftaranPasienBaruComponent</title>
<polygon fill="#ffffb3" stroke="black" points="637.94,-122 426.06,-122 426.06,-86 637.94,-86 637.94,-122"/>
<text text-anchor="middle" x="532" y="-99.8" font-family="Times,serif" font-size="14.00">PendaftaranPasienBaruComponent</text>
</g>
<!-- PendaftaranPasienBaruComponent&#45;&gt;PisModule -->
<g id="edge3" class="edge">
<title>PendaftaranPasienBaruComponent&#45;&gt;PisModule</title>
<path fill="none" stroke="black" d="M451.68,-122.11C451.68,-122.11 451.68,-140.99 451.68,-140.99"/>
<polygon fill="black" stroke="black" points="448.18,-140.99 451.68,-150.99 455.18,-140.99 448.18,-140.99"/>
</g>
<!-- PribadiComponent -->
<g id="node4" class="node">
<title>PribadiComponent</title>
<polygon fill="#ffffb3" stroke="black" points="407.77,-122 286.23,-122 286.23,-86 407.77,-86 407.77,-122"/>
<text text-anchor="middle" x="347" y="-99.8" font-family="Times,serif" font-size="14.00">PribadiComponent</text>
</g>
<!-- PribadiComponent&#45;&gt;PisModule -->
<g id="edge4" class="edge">
<title>PribadiComponent&#45;&gt;PisModule</title>
<path fill="none" stroke="black" d="M404.28,-122.11C404.28,-122.11 404.28,-140.99 404.28,-140.99"/>
<polygon fill="black" stroke="black" points="400.78,-140.99 404.28,-150.99 407.78,-140.99 400.78,-140.99"/>
</g>
<!-- PisRoutingModule -->
<g id="node6" class="node">
<title>PisRoutingModule</title>
<polygon fill="#8dd3c7" stroke="black" points="261.79,-122 258.79,-126 237.79,-126 234.79,-122 140.21,-122 140.21,-86 261.79,-86 261.79,-122"/>
<text text-anchor="middle" x="201" y="-99.8" font-family="Times,serif" font-size="14.00">PisRoutingModule</text>
</g>
<!-- PisRoutingModule&#45;&gt;PisModule -->
<g id="edge5" class="edge">
<title>PisRoutingModule&#45;&gt;PisModule</title>
<path fill="none" stroke="black" d="M201,-122.02C201,-139.37 201,-163 201,-163 201,-163 390.76,-163 390.76,-163"/>
<polygon fill="black" stroke="black" points="390.76,-166.5 400.76,-163 390.76,-159.5 390.76,-166.5"/>
</g>
<!-- SharedModule -->
<g id="node7" class="node">
<title>SharedModule</title>
<polygon fill="#8dd3c7" stroke="black" points="122.42,-122 119.42,-126 98.42,-126 95.42,-122 23.58,-122 23.58,-86 122.42,-86 122.42,-122"/>
<text text-anchor="middle" x="73" y="-99.8" font-family="Times,serif" font-size="14.00">SharedModule</text>
</g>
<!-- SharedModule&#45;&gt;PisModule -->
<g id="edge6" class="edge">
<title>SharedModule&#45;&gt;PisModule</title>
<path fill="none" stroke="black" d="M73,-122.28C73,-143.32 73,-175 73,-175 73,-175 390.52,-175 390.52,-175"/>
<polygon fill="black" stroke="black" points="390.52,-178.5 400.52,-175 390.52,-171.5 390.52,-178.5"/>
</g>
</g>
</svg>
