<?xml version="1.0" standalone="no"?>
<!DOCTYPE svg PUBLIC "-//W3C//DTD SVG 20010904//EN"
 "http://www.w3.org/TR/2001/REC-SVG-20010904/DTD/svg10.dtd">
<svg version="1.0" xmlns="http://www.w3.org/2000/svg"
 width="3388.000000pt" height="524.000000pt" viewBox="0 0 3388.000000 524.000000"
 preserveAspectRatio="xMidYMid meet">

<g transform="translate(0.000000,524.000000) scale(0.100000,-0.100000)"
fill="#000000" stroke="none">
<path d="M2413 5199 c-346 -31 -712 -133 -1014 -284 -260 -129 -453 -268 -654
-469 -272 -272 -446 -547 -590 -932 -114 -304 -168 -706 -145 -1076 31 -492
171 -921 428 -1313 223 -341 556 -638 904 -805 249 -120 422 -177 713 -235
849 -171 1837 -79 2595 242 l115 49 6 689 c4 612 7 697 22 750 57 199 180 317
377 361 l70 16 0 54 0 54 -1065 0 -1065 0 0 -55 0 -55 38 0 c65 0 171 -28 233
-61 123 -66 216 -209 244 -377 24 -139 17 -989 -8 -1077 -74 -258 -203 -344
-562 -376 -342 -30 -635 16 -890 140 -259 127 -473 328 -629 594 -279 474
-393 1191 -320 2007 43 472 111 746 264 1067 84 175 168 299 284 421 211 220
428 335 736 389 147 26 527 24 680 -5 397 -73 714 -237 991 -512 163 -162 302
-364 385 -561 l38 -89 48 0 48 0 0 730 0 730 -50 0 c-34 0 -50 -4 -50 -13 0
-27 -68 -154 -100 -185 -59 -60 -83 -67 -210 -66 -134 1 -202 13 -480 90 -364
99 -594 145 -816 164 -138 11 -438 11 -571 -1z"/>
<path d="M13355 5198 c-3 -7 -335 -944 -739 -2083 -403 -1139 -750 -2110 -770
-2158 -94 -226 -219 -444 -318 -552 -98 -108 -256 -200 -394 -231 l-74 -16 0
-49 0 -49 765 0 765 0 0 48 0 49 -82 20 c-177 44 -286 102 -330 173 -68 111
-74 273 -19 475 17 61 113 342 214 625 l184 515 763 0 762 0 209 -530 c219
-553 254 -655 290 -844 24 -132 21 -184 -16 -247 -56 -95 -195 -157 -402 -179
l-63 -7 0 -49 0 -49 1215 0 1215 0 0 49 0 49 -76 17 c-110 24 -186 51 -292
100 -149 71 -274 207 -367 400 -19 40 -426 1075 -904 2301 l-870 2229 -331 3
c-259 2 -332 0 -335 -10z m266 -2031 l327 -852 -636 -3 c-349 -1 -637 -1 -638
1 -4 4 610 1707 616 1707 3 0 152 -384 331 -853z"/>
<path d="M5470 5110 l0 -50 49 0 c88 0 223 -29 298 -65 170 -80 246 -210 273
-465 13 -131 13 -3714 0 -3835 -20 -172 -72 -312 -146 -395 -69 -76 -202 -124
-380 -136 l-94 -7 0 -48 0 -49 1200 0 1200 0 0 44 0 44 -67 7 c-137 12 -259
36 -309 60 -58 29 -161 131 -192 192 -12 22 -32 74 -44 114 l-23 74 -3 929 -3
929 178 -6 c185 -5 270 -20 376 -66 117 -50 263 -175 364 -309 112 -149 308
-489 553 -962 117 -226 403 -767 527 -997 l28 -53 823 0 822 0 0 49 0 49 -75
17 c-162 36 -297 136 -439 325 -113 149 -132 179 -501 810 -385 657 -421 715
-542 878 -147 198 -309 365 -441 452 -28 18 -39 31 -31 34 323 97 619 297 784
529 136 193 212 508 185 773 -57 568 -472 981 -1130 1125 -252 55 -190 53
-1772 56 l-1468 4 0 -51z m2360 -254 c437 -83 704 -310 799 -682 64 -252 42
-607 -53 -840 -45 -111 -130 -237 -209 -311 -213 -199 -499 -283 -963 -283
l-174 0 0 1071 0 1071 258 -5 c174 -3 284 -10 342 -21z"/>
</g>
</svg>
