<?xml version="1.0" encoding="UTF-8" standalone="no"?>
<!DOCTYPE svg PUBLIC "-//W3C//DTD SVG 1.1//EN"
 "http://www.w3.org/Graphics/SVG/1.1/DTD/svg11.dtd">
<!-- Generated by graphviz version 2.47.0 (20210316.0004)
 -->
<!-- Title: dependencies Pages: 1 -->
<svg width="9678pt" height="290pt"
 viewBox="0.00 0.00 9678.00 290.00" xmlns="http://www.w3.org/2000/svg" xmlns:xlink="http://www.w3.org/1999/xlink">
<g id="graph0" class="graph" transform="scale(1 1) rotate(0) translate(4 286)">
<title>dependencies</title>
<polygon fill="white" stroke="transparent" points="-4,4 -4,-286 9674,-286 9674,4 -4,4"/>
<text text-anchor="start" x="4814.01" y="-42.4" font-family="sans-serif" font-weight="bold" font-size="14.00">Legend</text>
<polygon fill="#ffffb3" stroke="transparent" points="4601,-10 4601,-30 4621,-30 4621,-10 4601,-10"/>
<text text-anchor="start" x="4624.63" y="-15.4" font-family="sans-serif" font-size="14.00"> &#160;Declarations</text>
<polygon fill="#8dd3c7" stroke="transparent" points="4714,-10 4714,-30 4734,-30 4734,-10 4714,-10"/>
<text text-anchor="start" x="4737.73" y="-15.4" font-family="sans-serif" font-size="14.00"> &#160;Module</text>
<polygon fill="#80b1d3" stroke="transparent" points="4800,-10 4800,-30 4820,-30 4820,-10 4800,-10"/>
<text text-anchor="start" x="4823.78" y="-15.4" font-family="sans-serif" font-size="14.00"> &#160;Bootstrap</text>
<polygon fill="#fdb462" stroke="transparent" points="4897,-10 4897,-30 4917,-30 4917,-10 4897,-10"/>
<text text-anchor="start" x="4920.67" y="-15.4" font-family="sans-serif" font-size="14.00"> &#160;Providers</text>
<polygon fill="#fb8072" stroke="transparent" points="4993,-10 4993,-30 5013,-30 5013,-10 4993,-10"/>
<text text-anchor="start" x="5016.73" y="-15.4" font-family="sans-serif" font-size="14.00"> &#160;Exports</text>
<g id="clust1" class="cluster">
<title>cluster_AppModule</title>
<polygon fill="none" stroke="black" stroke-dasharray="1,5" points="8,-70 8,-274 298,-274 298,-70 8,-70"/>
</g>
<g id="clust2" class="cluster">
<title>cluster_AppModule_declarations</title>
<polygon fill="none" stroke="black" points="168,-78 168,-130 290,-130 290,-78 168,-78"/>
</g>
<g id="clust4" class="cluster">
<title>cluster_AppModule_imports</title>
<polygon fill="none" stroke="black" points="16,-78 16,-130 160,-130 160,-78 16,-78"/>
</g>
<g id="clust6" class="cluster">
<title>cluster_AppModule_bootstrap</title>
<polygon fill="none" stroke="black" points="96,-214 96,-266 220,-266 220,-214 96,-214"/>
</g>
<g id="clust14" class="cluster">
<title>cluster_AuthModule</title>
<polygon fill="none" stroke="black" stroke-dasharray="1,5" points="306,-70 306,-198 624,-198 624,-70 306,-70"/>
</g>
<g id="clust15" class="cluster">
<title>cluster_AuthModule_declarations</title>
<polygon fill="none" stroke="black" points="314,-78 314,-130 494,-130 494,-78 314,-78"/>
</g>
<g id="clust17" class="cluster">
<title>cluster_AuthModule_imports</title>
<polygon fill="none" stroke="black" points="502,-78 502,-130 616,-130 616,-78 502,-78"/>
</g>
<g id="clust21" class="cluster">
<title>cluster_CoreModule</title>
<polygon fill="none" stroke="black" stroke-dasharray="1,5" points="6778,-70 6778,-198 8850,-198 8850,-70 6778,-70"/>
</g>
<g id="clust22" class="cluster">
<title>cluster_CoreModule_declarations</title>
<polygon fill="none" stroke="black" points="6942,-78 6942,-130 8842,-130 8842,-78 6942,-78"/>
</g>
<g id="clust34" class="cluster">
<title>cluster_CoreModule_imports</title>
<polygon fill="none" stroke="black" points="6786,-78 6786,-130 6934,-130 6934,-78 6786,-78"/>
</g>
<g id="clust44" class="cluster">
<title>cluster_PisModule</title>
<polygon fill="none" stroke="black" stroke-dasharray="1,5" points="8858,-70 8858,-198 9662,-198 9662,-70 8858,-70"/>
</g>
<g id="clust45" class="cluster">
<title>cluster_PisModule_declarations</title>
<polygon fill="none" stroke="black" points="9012,-78 9012,-130 9654,-130 9654,-78 9012,-78"/>
</g>
<g id="clust50" class="cluster">
<title>cluster_PisModule_imports</title>
<polygon fill="none" stroke="black" points="8866,-78 8866,-130 9004,-130 9004,-78 8866,-78"/>
</g>
<g id="clust60" class="cluster">
<title>cluster_SharedModule</title>
<polygon fill="none" stroke="black" stroke-dasharray="1,5" points="632,-138 632,-206 6770,-206 6770,-138 632,-138"/>
</g>
<g id="clust61" class="cluster">
<title>cluster_SharedModule_declarations</title>
<polygon fill="none" stroke="black" points="3732,-146 3732,-198 6762,-198 6762,-146 3732,-146"/>
</g>
<g id="clust79" class="cluster">
<title>cluster_SharedModule_exports</title>
<polygon fill="none" stroke="black" points="640,-146 640,-198 3724,-198 3724,-146 640,-146"/>
</g>
<!-- AppComponent -->
<g id="node1" class="node">
<title>AppComponent</title>
<polygon fill="#ffffb3" stroke="black" points="281.94,-122 176.06,-122 176.06,-86 281.94,-86 281.94,-122"/>
<text text-anchor="middle" x="229" y="-99.8" font-family="Times,serif" font-size="14.00">AppComponent</text>
</g>
<!-- AppModule -->
<g id="node2" class="node">
<title>AppModule</title>
<polygon fill="#8dd3c7" stroke="black" points="199.66,-190 196.66,-194 175.66,-194 172.66,-190 116.34,-190 116.34,-154 199.66,-154 199.66,-190"/>
<text text-anchor="middle" x="158" y="-167.8" font-family="Times,serif" font-size="14.00">AppModule</text>
</g>
<!-- AppComponent&#45;&gt;AppModule -->
<g id="edge1" class="edge">
<title>AppComponent&#45;&gt;AppModule</title>
<path fill="none" stroke="black" d="M188.05,-122.22C188.05,-122.22 188.05,-143.73 188.05,-143.73"/>
<polygon fill="black" stroke="black" points="184.55,-143.73 188.05,-153.73 191.55,-143.73 184.55,-143.73"/>
</g>
<!-- AppComponent  -->
<g id="node4" class="node">
<title>AppComponent </title>
<polygon fill="#80b1d3" stroke="black" points="212.44,-258 103.56,-258 103.56,-222 212.44,-222 212.44,-258"/>
<text text-anchor="middle" x="158" y="-235.8" font-family="Times,serif" font-size="14.00">AppComponent </text>
</g>
<!-- AppModule&#45;&gt;AppComponent  -->
<g id="edge3" class="edge">
<title>AppModule&#45;&gt;AppComponent </title>
<path fill="none" stroke="black" stroke-dasharray="1,5" d="M158,-190.22C158,-190.22 158,-211.73 158,-211.73"/>
<polygon fill="black" stroke="black" points="154.5,-211.73 158,-221.73 161.5,-211.73 154.5,-211.73"/>
</g>
<!-- AppRoutingModule -->
<g id="node3" class="node">
<title>AppRoutingModule</title>
<polygon fill="#8dd3c7" stroke="black" points="152.27,-122 149.27,-126 128.27,-126 125.27,-122 23.73,-122 23.73,-86 152.27,-86 152.27,-122"/>
<text text-anchor="middle" x="88" y="-99.8" font-family="Times,serif" font-size="14.00">AppRoutingModule</text>
</g>
<!-- AppRoutingModule&#45;&gt;AppModule -->
<g id="edge2" class="edge">
<title>AppRoutingModule&#45;&gt;AppModule</title>
<path fill="none" stroke="black" d="M134.28,-122.22C134.28,-122.22 134.28,-143.73 134.28,-143.73"/>
<polygon fill="black" stroke="black" points="130.78,-143.73 134.28,-153.73 137.78,-143.73 130.78,-143.73"/>
</g>
<!-- AuthenticationComponent -->
<g id="node5" class="node">
<title>AuthenticationComponent</title>
<polygon fill="#ffffb3" stroke="black" points="486.04,-122 321.96,-122 321.96,-86 486.04,-86 486.04,-122"/>
<text text-anchor="middle" x="404" y="-99.8" font-family="Times,serif" font-size="14.00">AuthenticationComponent</text>
</g>
<!-- AuthModule -->
<g id="node6" class="node">
<title>AuthModule</title>
<polygon fill="#8dd3c7" stroke="black" points="524.55,-190 521.55,-194 500.55,-194 497.55,-190 437.45,-190 437.45,-154 524.55,-154 524.55,-190"/>
<text text-anchor="middle" x="481" y="-167.8" font-family="Times,serif" font-size="14.00">AuthModule</text>
</g>
<!-- AuthenticationComponent&#45;&gt;AuthModule -->
<g id="edge4" class="edge">
<title>AuthenticationComponent&#45;&gt;AuthModule</title>
<path fill="none" stroke="black" d="M461.75,-122.22C461.75,-122.22 461.75,-143.73 461.75,-143.73"/>
<polygon fill="black" stroke="black" points="458.25,-143.73 461.75,-153.73 465.25,-143.73 458.25,-143.73"/>
</g>
<!-- SharedModule -->
<g id="node7" class="node">
<title>SharedModule</title>
<polygon fill="#8dd3c7" stroke="black" points="608.42,-122 605.42,-126 584.42,-126 581.42,-122 509.58,-122 509.58,-86 608.42,-86 608.42,-122"/>
<text text-anchor="middle" x="559" y="-99.8" font-family="Times,serif" font-size="14.00">SharedModule</text>
</g>
<!-- SharedModule&#45;&gt;AuthModule -->
<g id="edge5" class="edge">
<title>SharedModule&#45;&gt;AuthModule</title>
<path fill="none" stroke="black" d="M517.28,-122.22C517.28,-122.22 517.28,-143.73 517.28,-143.73"/>
<polygon fill="black" stroke="black" points="513.78,-143.73 517.28,-153.73 520.78,-143.73 513.78,-143.73"/>
</g>
<!-- CoreModule -->
<g id="node19" class="node">
<title>CoreModule</title>
<polygon fill="#8dd3c7" stroke="black" points="7729.26,-190 7726.26,-194 7705.26,-194 7702.26,-190 7642.74,-190 7642.74,-154 7729.26,-154 7729.26,-190"/>
<text text-anchor="middle" x="7686" y="-167.8" font-family="Times,serif" font-size="14.00">CoreModule</text>
</g>
<!-- SharedModule&#45;&gt;CoreModule -->
<g id="edge18" class="edge">
<title>SharedModule&#45;&gt;CoreModule</title>
<path fill="none" stroke="black" d="M608.57,-88C1194.35,-88 6774.16,-88 6774.16,-88 6774.16,-88 6774.16,-185 6774.16,-185 6774.16,-185 7632.63,-185 7632.63,-185"/>
<polygon fill="black" stroke="black" points="7632.63,-188.5 7642.63,-185 7632.63,-181.5 7632.63,-188.5"/>
</g>
<!-- PisModule -->
<g id="node25" class="node">
<title>PisModule</title>
<polygon fill="#8dd3c7" stroke="black" points="9193.17,-190 9190.17,-194 9169.17,-194 9166.17,-190 9116.83,-190 9116.83,-154 9193.17,-154 9193.17,-190"/>
<text text-anchor="middle" x="9155" y="-167.8" font-family="Times,serif" font-size="14.00">PisModule</text>
</g>
<!-- SharedModule&#45;&gt;PisModule -->
<g id="edge24" class="edge">
<title>SharedModule&#45;&gt;PisModule</title>
<path fill="none" stroke="black" d="M552.59,-122.19C552.59,-130.28 552.59,-138 552.59,-138 552.59,-138 9129.01,-138 9129.01,-138 9129.01,-138 9129.01,-143.81 9129.01,-143.81"/>
<polygon fill="black" stroke="black" points="9125.51,-143.81 9129.01,-153.81 9132.51,-143.81 9125.51,-143.81"/>
</g>
<!-- AtmButtonDangerComponent  -->
<g id="node43" class="node">
<title>AtmButtonDangerComponent </title>
<polygon fill="#fb8072" stroke="black" points="2169.53,-190 1980.47,-190 1980.47,-154 2169.53,-154 2169.53,-190"/>
<text text-anchor="middle" x="2075" y="-167.8" font-family="Times,serif" font-size="14.00">AtmButtonDangerComponent </text>
</g>
<!-- SharedModule&#45;&gt;AtmButtonDangerComponent  -->
<g id="edge41" class="edge">
<title>SharedModule&#45;&gt;AtmButtonDangerComponent </title>
<path fill="none" stroke="black" stroke-dasharray="5,2" d="M608.58,-115C869.85,-115 2075,-115 2075,-115 2075,-115 2075,-143.96 2075,-143.96"/>
<polygon fill="black" stroke="black" points="2071.5,-143.96 2075,-153.96 2078.5,-143.96 2071.5,-143.96"/>
</g>
<!-- AtmButtonPrimaryComponent  -->
<g id="node44" class="node">
<title>AtmButtonPrimaryComponent </title>
<polygon fill="#fb8072" stroke="black" points="1962.44,-190 1769.56,-190 1769.56,-154 1962.44,-154 1962.44,-190"/>
<text text-anchor="middle" x="1866" y="-167.8" font-family="Times,serif" font-size="14.00">AtmButtonPrimaryComponent </text>
</g>
<!-- SharedModule&#45;&gt;AtmButtonPrimaryComponent  -->
<g id="edge42" class="edge">
<title>SharedModule&#45;&gt;AtmButtonPrimaryComponent </title>
<path fill="none" stroke="black" stroke-dasharray="5,2" d="M608.24,-116C846.25,-116 1866,-116 1866,-116 1866,-116 1866,-143.97 1866,-143.97"/>
<polygon fill="black" stroke="black" points="1862.5,-143.97 1866,-153.97 1869.5,-143.97 1862.5,-143.97"/>
</g>
<!-- AtmHeaderRibbonComponent  -->
<g id="node45" class="node">
<title>AtmHeaderRibbonComponent </title>
<polygon fill="#fb8072" stroke="black" points="1751.86,-190 1560.14,-190 1560.14,-154 1751.86,-154 1751.86,-190"/>
<text text-anchor="middle" x="1656" y="-167.8" font-family="Times,serif" font-size="14.00">AtmHeaderRibbonComponent </text>
</g>
<!-- SharedModule&#45;&gt;AtmHeaderRibbonComponent  -->
<g id="edge43" class="edge">
<title>SharedModule&#45;&gt;AtmHeaderRibbonComponent </title>
<path fill="none" stroke="black" stroke-dasharray="5,2" d="M608.27,-117C821.72,-117 1656,-117 1656,-117 1656,-117 1656,-143.99 1656,-143.99"/>
<polygon fill="black" stroke="black" points="1652.5,-143.99 1656,-153.99 1659.5,-143.99 1652.5,-143.99"/>
</g>
<!-- AtmInputComponent  -->
<g id="node46" class="node">
<title>AtmInputComponent </title>
<polygon fill="#fb8072" stroke="black" points="1542.77,-190 1403.23,-190 1403.23,-154 1542.77,-154 1542.77,-190"/>
<text text-anchor="middle" x="1473" y="-167.8" font-family="Times,serif" font-size="14.00">AtmInputComponent </text>
</g>
<!-- SharedModule&#45;&gt;AtmInputComponent  -->
<g id="edge44" class="edge">
<title>SharedModule&#45;&gt;AtmInputComponent </title>
<path fill="none" stroke="black" stroke-dasharray="5,2" d="M608.46,-118C798.75,-118 1473,-118 1473,-118 1473,-118 1473,-143.72 1473,-143.72"/>
<polygon fill="black" stroke="black" points="1469.5,-143.72 1473,-153.72 1476.5,-143.72 1469.5,-143.72"/>
</g>
<!-- AtmInputGroupComponentAtom  -->
<g id="node47" class="node">
<title>AtmInputGroupComponentAtom </title>
<polygon fill="#fb8072" stroke="black" points="1385.43,-190 1178.57,-190 1178.57,-154 1385.43,-154 1385.43,-190"/>
<text text-anchor="middle" x="1282" y="-167.8" font-family="Times,serif" font-size="14.00">AtmInputGroupComponentAtom </text>
</g>
<!-- SharedModule&#45;&gt;AtmInputGroupComponentAtom  -->
<g id="edge45" class="edge">
<title>SharedModule&#45;&gt;AtmInputGroupComponentAtom </title>
<path fill="none" stroke="black" stroke-dasharray="5,2" d="M608.41,-119C771.45,-119 1282,-119 1282,-119 1282,-119 1282,-143.76 1282,-143.76"/>
<polygon fill="black" stroke="black" points="1278.5,-143.76 1282,-153.76 1285.5,-143.76 1278.5,-143.76"/>
</g>
<!-- AtmLabelComponent  -->
<g id="node48" class="node">
<title>AtmLabelComponent </title>
<polygon fill="#fb8072" stroke="black" points="1160.59,-190 1019.41,-190 1019.41,-154 1160.59,-154 1160.59,-190"/>
<text text-anchor="middle" x="1090" y="-167.8" font-family="Times,serif" font-size="14.00">AtmLabelComponent </text>
</g>
<!-- SharedModule&#45;&gt;AtmLabelComponent  -->
<g id="edge46" class="edge">
<title>SharedModule&#45;&gt;AtmLabelComponent </title>
<path fill="none" stroke="black" stroke-dasharray="5,2" d="M608.48,-120C740.3,-120 1090,-120 1090,-120 1090,-120 1090,-143.81 1090,-143.81"/>
<polygon fill="black" stroke="black" points="1086.5,-143.81 1090,-153.81 1093.5,-143.81 1086.5,-143.81"/>
</g>
<!-- AtmNotificationComponent  -->
<g id="node49" class="node">
<title>AtmNotificationComponent </title>
<polygon fill="#fb8072" stroke="black" points="1001.87,-190 824.13,-190 824.13,-154 1001.87,-154 1001.87,-190"/>
<text text-anchor="middle" x="913" y="-167.8" font-family="Times,serif" font-size="14.00">AtmNotificationComponent </text>
</g>
<!-- SharedModule&#45;&gt;AtmNotificationComponent  -->
<g id="edge47" class="edge">
<title>SharedModule&#45;&gt;AtmNotificationComponent </title>
<path fill="none" stroke="black" stroke-dasharray="5,2" d="M608.22,-121C705.49,-121 913,-121 913,-121 913,-121 913,-143.88 913,-143.88"/>
<polygon fill="black" stroke="black" points="909.5,-143.88 913,-153.88 916.5,-143.88 909.5,-143.88"/>
</g>
<!-- AtmTextareaComponent  -->
<g id="node50" class="node">
<title>AtmTextareaComponent </title>
<polygon fill="#fb8072" stroke="black" points="806.18,-190 647.82,-190 647.82,-154 806.18,-154 806.18,-190"/>
<text text-anchor="middle" x="727" y="-167.8" font-family="Times,serif" font-size="14.00">AtmTextareaComponent </text>
</g>
<!-- SharedModule&#45;&gt;AtmTextareaComponent  -->
<g id="edge48" class="edge">
<title>SharedModule&#45;&gt;AtmTextareaComponent </title>
<path fill="none" stroke="black" stroke-dasharray="5,2" d="M580.4,-122.22C580.4,-142.37 580.4,-172 580.4,-172 580.4,-172 637.69,-172 637.69,-172"/>
<polygon fill="black" stroke="black" points="637.69,-175.5 647.69,-172 637.69,-168.5 637.69,-175.5"/>
</g>
<!-- AtmValidatorsComponent  -->
<g id="node51" class="node">
<title>AtmValidatorsComponent </title>
<polygon fill="#fb8072" stroke="black" points="3716.03,-190 3547.97,-190 3547.97,-154 3716.03,-154 3716.03,-190"/>
<text text-anchor="middle" x="3632" y="-167.8" font-family="Times,serif" font-size="14.00">AtmValidatorsComponent </text>
</g>
<!-- SharedModule&#45;&gt;AtmValidatorsComponent  -->
<g id="edge49" class="edge">
<title>SharedModule&#45;&gt;AtmValidatorsComponent </title>
<path fill="none" stroke="black" stroke-dasharray="5,2" d="M608.51,-106C1003.77,-106 3632,-106 3632,-106 3632,-106 3632,-143.97 3632,-143.97"/>
<polygon fill="black" stroke="black" points="3628.5,-143.97 3632,-153.97 3635.5,-143.97 3628.5,-143.97"/>
</g>
<!-- MolGridComponent  -->
<g id="node52" class="node">
<title>MolGridComponent </title>
<polygon fill="#fb8072" stroke="black" points="3529.83,-190 3396.17,-190 3396.17,-154 3529.83,-154 3529.83,-190"/>
<text text-anchor="middle" x="3463" y="-167.8" font-family="Times,serif" font-size="14.00">MolGridComponent </text>
</g>
<!-- SharedModule&#45;&gt;MolGridComponent  -->
<g id="edge50" class="edge">
<title>SharedModule&#45;&gt;MolGridComponent </title>
<path fill="none" stroke="black" stroke-dasharray="5,2" d="M608.49,-107C991.1,-107 3463,-107 3463,-107 3463,-107 3463,-143.89 3463,-143.89"/>
<polygon fill="black" stroke="black" points="3459.5,-143.89 3463,-153.89 3466.5,-143.89 3459.5,-143.89"/>
</g>
<!-- MolInputGroupComponent  -->
<g id="node53" class="node">
<title>MolInputGroupComponent </title>
<polygon fill="#fb8072" stroke="black" points="3377.99,-190 3204.01,-190 3204.01,-154 3377.99,-154 3377.99,-190"/>
<text text-anchor="middle" x="3291" y="-167.8" font-family="Times,serif" font-size="14.00">MolInputGroupComponent </text>
</g>
<!-- SharedModule&#45;&gt;MolInputGroupComponent  -->
<g id="edge51" class="edge">
<title>SharedModule&#45;&gt;MolInputGroupComponent </title>
<path fill="none" stroke="black" stroke-dasharray="5,2" d="M608.46,-108C977.8,-108 3291,-108 3291,-108 3291,-108 3291,-143.83 3291,-143.83"/>
<polygon fill="black" stroke="black" points="3287.5,-143.83 3291,-153.83 3294.5,-143.83 3287.5,-143.83"/>
</g>
<!-- MolInputGroupKodeComponent  -->
<g id="node54" class="node">
<title>MolInputGroupKodeComponent </title>
<polygon fill="#fb8072" stroke="black" points="3185.81,-190 2982.19,-190 2982.19,-154 3185.81,-154 3185.81,-190"/>
<text text-anchor="middle" x="3084" y="-167.8" font-family="Times,serif" font-size="14.00">MolInputGroupKodeComponent </text>
</g>
<!-- SharedModule&#45;&gt;MolInputGroupKodeComponent  -->
<g id="edge52" class="edge">
<title>SharedModule&#45;&gt;MolInputGroupKodeComponent </title>
<path fill="none" stroke="black" stroke-dasharray="5,2" d="M608.31,-109C960.79,-109 3084,-109 3084,-109 3084,-109 3084,-143.78 3084,-143.78"/>
<polygon fill="black" stroke="black" points="3080.5,-143.78 3084,-153.78 3087.5,-143.78 3080.5,-143.78"/>
</g>
<!-- MolInputTextComponent  -->
<g id="node55" class="node">
<title>MolInputTextComponent </title>
<polygon fill="#fb8072" stroke="black" points="2963.88,-190 2800.12,-190 2800.12,-154 2963.88,-154 2963.88,-190"/>
<text text-anchor="middle" x="2882" y="-167.8" font-family="Times,serif" font-size="14.00">MolInputTextComponent </text>
</g>
<!-- SharedModule&#45;&gt;MolInputTextComponent  -->
<g id="edge53" class="edge">
<title>SharedModule&#45;&gt;MolInputTextComponent </title>
<path fill="none" stroke="black" stroke-dasharray="5,2" d="M608.32,-110C944.22,-110 2882,-110 2882,-110 2882,-110 2882,-143.73 2882,-143.73"/>
<polygon fill="black" stroke="black" points="2878.5,-143.73 2882,-153.73 2885.5,-143.73 2878.5,-143.73"/>
</g>
<!-- MolInputTextareaComponent  -->
<g id="node56" class="node">
<title>MolInputTextareaComponent </title>
<polygon fill="#fb8072" stroke="black" points="2782.18,-190 2595.82,-190 2595.82,-154 2782.18,-154 2782.18,-190"/>
<text text-anchor="middle" x="2689" y="-167.8" font-family="Times,serif" font-size="14.00">MolInputTextareaComponent </text>
</g>
<!-- SharedModule&#45;&gt;MolInputTextareaComponent  -->
<g id="edge54" class="edge">
<title>SharedModule&#45;&gt;MolInputTextareaComponent </title>
<path fill="none" stroke="black" stroke-dasharray="5,2" d="M608.26,-112C927.38,-112 2689,-112 2689,-112 2689,-112 2689,-144 2689,-144"/>
<polygon fill="black" stroke="black" points="2685.5,-144 2689,-154 2692.5,-144 2685.5,-144"/>
</g>
<!-- MolLockUpFiltersComponent  -->
<g id="node57" class="node">
<title>MolLockUpFiltersComponent </title>
<polygon fill="#fb8072" stroke="black" points="2577.82,-190 2388.18,-190 2388.18,-154 2577.82,-154 2577.82,-190"/>
<text text-anchor="middle" x="2483" y="-167.8" font-family="Times,serif" font-size="14.00">MolLockUpFiltersComponent </text>
</g>
<!-- SharedModule&#45;&gt;MolLockUpFiltersComponent  -->
<g id="edge55" class="edge">
<title>SharedModule&#45;&gt;MolLockUpFiltersComponent </title>
<path fill="none" stroke="black" stroke-dasharray="5,2" d="M608.49,-113C909.64,-113 2483,-113 2483,-113 2483,-113 2483,-143.98 2483,-143.98"/>
<polygon fill="black" stroke="black" points="2479.5,-143.98 2483,-153.98 2486.5,-143.98 2479.5,-143.98"/>
</g>
<!-- OrgInputLookUpComponent  -->
<g id="node58" class="node">
<title>OrgInputLookUpComponent </title>
<polygon fill="#fb8072" stroke="black" points="2370.31,-190 2187.69,-190 2187.69,-154 2370.31,-154 2370.31,-190"/>
<text text-anchor="middle" x="2279" y="-167.8" font-family="Times,serif" font-size="14.00">OrgInputLookUpComponent </text>
</g>
<!-- SharedModule&#45;&gt;OrgInputLookUpComponent  -->
<g id="edge56" class="edge">
<title>SharedModule&#45;&gt;OrgInputLookUpComponent </title>
<path fill="none" stroke="black" stroke-dasharray="5,2" d="M608.62,-114C890.63,-114 2279,-114 2279,-114 2279,-114 2279,-143.97 2279,-143.97"/>
<polygon fill="black" stroke="black" points="2275.5,-143.97 2279,-153.97 2282.5,-143.97 2275.5,-143.97"/>
</g>
<!-- AboutComponent -->
<g id="node8" class="node">
<title>AboutComponent</title>
<polygon fill="#ffffb3" stroke="black" points="7232.33,-122 7115.67,-122 7115.67,-86 7232.33,-86 7232.33,-122"/>
<text text-anchor="middle" x="7174" y="-99.8" font-family="Times,serif" font-size="14.00">AboutComponent</text>
</g>
<!-- AboutComponent&#45;&gt;CoreModule -->
<g id="edge6" class="edge">
<title>AboutComponent&#45;&gt;CoreModule</title>
<path fill="none" stroke="black" d="M7174,-122.03C7174,-141.58 7174,-170 7174,-170 7174,-170 7632.35,-170 7632.35,-170"/>
<polygon fill="black" stroke="black" points="7632.35,-173.5 7642.35,-170 7632.35,-166.5 7632.35,-173.5"/>
</g>
<!-- AtmNavbarComponent -->
<g id="node9" class="node">
<title>AtmNavbarComponent</title>
<polygon fill="#ffffb3" stroke="black" points="7097.92,-122 6950.08,-122 6950.08,-86 7097.92,-86 7097.92,-122"/>
<text text-anchor="middle" x="7024" y="-99.8" font-family="Times,serif" font-size="14.00">AtmNavbarComponent</text>
</g>
<!-- AtmNavbarComponent&#45;&gt;CoreModule -->
<g id="edge7" class="edge">
<title>AtmNavbarComponent&#45;&gt;CoreModule</title>
<path fill="none" stroke="black" d="M7024,-122.28C7024,-143.32 7024,-175 7024,-175 7024,-175 7632.56,-175 7632.56,-175"/>
<polygon fill="black" stroke="black" points="7632.56,-178.5 7642.56,-175 7632.56,-171.5 7632.56,-178.5"/>
</g>
<!-- AtmSingleMenuComponent -->
<g id="node10" class="node">
<title>AtmSingleMenuComponent</title>
<polygon fill="#ffffb3" stroke="black" points="8834.16,-122 8659.84,-122 8659.84,-86 8834.16,-86 8834.16,-122"/>
<text text-anchor="middle" x="8747" y="-99.8" font-family="Times,serif" font-size="14.00">AtmSingleMenuComponent</text>
</g>
<!-- AtmSingleMenuComponent&#45;&gt;CoreModule -->
<g id="edge8" class="edge">
<title>AtmSingleMenuComponent&#45;&gt;CoreModule</title>
<path fill="none" stroke="black" d="M8747,-122.2C8747,-146.36 8747,-186 8747,-186 8747,-186 7739.57,-186 7739.57,-186"/>
<polygon fill="black" stroke="black" points="7739.57,-182.5 7729.57,-186 7739.57,-189.5 7739.57,-182.5"/>
</g>
<!-- AtmTreeviewMenuComponent -->
<g id="node11" class="node">
<title>AtmTreeviewMenuComponent</title>
<polygon fill="#ffffb3" stroke="black" points="8641.73,-122 8450.27,-122 8450.27,-86 8641.73,-86 8641.73,-122"/>
<text text-anchor="middle" x="8546" y="-99.8" font-family="Times,serif" font-size="14.00">AtmTreeviewMenuComponent</text>
</g>
<!-- AtmTreeviewMenuComponent&#45;&gt;CoreModule -->
<g id="edge9" class="edge">
<title>AtmTreeviewMenuComponent&#45;&gt;CoreModule</title>
<path fill="none" stroke="black" d="M8546,-122.25C8546,-145.02 8546,-181 8546,-181 8546,-181 7739.53,-181 7739.53,-181"/>
<polygon fill="black" stroke="black" points="7739.53,-177.5 7729.53,-181 7739.53,-184.5 7739.53,-177.5"/>
</g>
<!-- BerandaComponent -->
<g id="node12" class="node">
<title>BerandaComponent</title>
<polygon fill="#ffffb3" stroke="black" points="8431.97,-122 8304.03,-122 8304.03,-86 8431.97,-86 8431.97,-122"/>
<text text-anchor="middle" x="8368" y="-99.8" font-family="Times,serif" font-size="14.00">BerandaComponent</text>
</g>
<!-- BerandaComponent&#45;&gt;CoreModule -->
<g id="edge10" class="edge">
<title>BerandaComponent&#45;&gt;CoreModule</title>
<path fill="none" stroke="black" d="M8368,-122.04C8368,-143.66 8368,-177 8368,-177 8368,-177 7739.44,-177 7739.44,-177"/>
<polygon fill="black" stroke="black" points="7739.44,-173.5 7729.44,-177 7739.44,-180.5 7739.44,-173.5"/>
</g>
<!-- DashboardComponent -->
<g id="node13" class="node">
<title>DashboardComponent</title>
<polygon fill="#ffffb3" stroke="black" points="8285.97,-122 8144.03,-122 8144.03,-86 8285.97,-86 8285.97,-122"/>
<text text-anchor="middle" x="8215" y="-99.8" font-family="Times,serif" font-size="14.00">DashboardComponent</text>
</g>
<!-- DashboardComponent&#45;&gt;CoreModule -->
<g id="edge11" class="edge">
<title>DashboardComponent&#45;&gt;CoreModule</title>
<path fill="none" stroke="black" d="M8215,-122.22C8215,-142.37 8215,-172 8215,-172 8215,-172 7739.29,-172 7739.29,-172"/>
<polygon fill="black" stroke="black" points="7739.29,-168.5 7729.29,-172 7739.29,-175.5 7739.29,-168.5"/>
</g>
<!-- ExmpleMasterComponent -->
<g id="node14" class="node">
<title>ExmpleMasterComponent</title>
<polygon fill="#ffffb3" stroke="black" points="8125.75,-122 7962.25,-122 7962.25,-86 8125.75,-86 8125.75,-122"/>
<text text-anchor="middle" x="8044" y="-99.8" font-family="Times,serif" font-size="14.00">ExmpleMasterComponent</text>
</g>
<!-- ExmpleMasterComponent&#45;&gt;CoreModule -->
<g id="edge12" class="edge">
<title>ExmpleMasterComponent&#45;&gt;CoreModule</title>
<path fill="none" stroke="black" d="M8044,-122.17C8044,-141.09 8044,-168 8044,-168 8044,-168 7739.54,-168 7739.54,-168"/>
<polygon fill="black" stroke="black" points="7739.54,-164.5 7729.54,-168 7739.54,-171.5 7739.54,-164.5"/>
</g>
<!-- MolMainMenuComponent -->
<g id="node15" class="node">
<title>MolMainMenuComponent</title>
<polygon fill="#ffffb3" stroke="black" points="7944.38,-122 7777.62,-122 7777.62,-86 7944.38,-86 7944.38,-122"/>
<text text-anchor="middle" x="7861" y="-99.8" font-family="Times,serif" font-size="14.00">MolMainMenuComponent</text>
</g>
<!-- MolMainMenuComponent&#45;&gt;CoreModule -->
<g id="edge13" class="edge">
<title>MolMainMenuComponent&#45;&gt;CoreModule</title>
<path fill="none" stroke="black" d="M7861,-122.02C7861,-139.37 7861,-163 7861,-163 7861,-163 7739.71,-163 7739.71,-163"/>
<polygon fill="black" stroke="black" points="7739.71,-159.5 7729.71,-163 7739.71,-166.5 7739.71,-159.5"/>
</g>
<!-- MolSidebarComponent -->
<g id="node16" class="node">
<title>MolSidebarComponent</title>
<polygon fill="#ffffb3" stroke="black" points="7759.93,-122 7612.07,-122 7612.07,-86 7759.93,-86 7759.93,-122"/>
<text text-anchor="middle" x="7686" y="-99.8" font-family="Times,serif" font-size="14.00">MolSidebarComponent</text>
</g>
<!-- MolSidebarComponent&#45;&gt;CoreModule -->
<g id="edge14" class="edge">
<title>MolSidebarComponent&#45;&gt;CoreModule</title>
<path fill="none" stroke="black" d="M7686,-122.22C7686,-122.22 7686,-143.73 7686,-143.73"/>
<polygon fill="black" stroke="black" points="7682.5,-143.73 7686,-153.73 7689.5,-143.73 7682.5,-143.73"/>
</g>
<!-- MolTopMenuComponent -->
<g id="node17" class="node">
<title>MolTopMenuComponent</title>
<polygon fill="#ffffb3" stroke="black" points="7593.88,-122 7434.12,-122 7434.12,-86 7593.88,-86 7593.88,-122"/>
<text text-anchor="middle" x="7514" y="-99.8" font-family="Times,serif" font-size="14.00">MolTopMenuComponent</text>
</g>
<!-- MolTopMenuComponent&#45;&gt;CoreModule -->
<g id="edge15" class="edge">
<title>MolTopMenuComponent&#45;&gt;CoreModule</title>
<path fill="none" stroke="black" d="M7514,-122.03C7514,-138.4 7514,-160 7514,-160 7514,-160 7632.6,-160 7632.6,-160"/>
<polygon fill="black" stroke="black" points="7632.6,-163.5 7642.6,-160 7632.6,-156.5 7632.6,-163.5"/>
</g>
<!-- PageNotFoundComponent -->
<g id="node18" class="node">
<title>PageNotFoundComponent</title>
<polygon fill="#ffffb3" stroke="black" points="7415.82,-122 7250.18,-122 7250.18,-86 7415.82,-86 7415.82,-122"/>
<text text-anchor="middle" x="7333" y="-99.8" font-family="Times,serif" font-size="14.00">PageNotFoundComponent</text>
</g>
<!-- PageNotFoundComponent&#45;&gt;CoreModule -->
<g id="edge16" class="edge">
<title>PageNotFoundComponent&#45;&gt;CoreModule</title>
<path fill="none" stroke="black" d="M7333,-122.3C7333,-140.27 7333,-165 7333,-165 7333,-165 7632.72,-165 7632.72,-165"/>
<polygon fill="black" stroke="black" points="7632.72,-168.5 7642.72,-165 7632.72,-161.5 7632.72,-168.5"/>
</g>
<!-- CoreRoutingModule -->
<g id="node20" class="node">
<title>CoreRoutingModule</title>
<polygon fill="#8dd3c7" stroke="black" points="6925.88,-122 6922.88,-126 6901.88,-126 6898.88,-122 6794.12,-122 6794.12,-86 6925.88,-86 6925.88,-122"/>
<text text-anchor="middle" x="6860" y="-99.8" font-family="Times,serif" font-size="14.00">CoreRoutingModule</text>
</g>
<!-- CoreRoutingModule&#45;&gt;CoreModule -->
<g id="edge17" class="edge">
<title>CoreRoutingModule&#45;&gt;CoreModule</title>
<path fill="none" stroke="black" d="M6860,-122.01C6860,-144.49 6860,-180 6860,-180 6860,-180 7632.46,-180 7632.46,-180"/>
<polygon fill="black" stroke="black" points="7632.46,-183.5 7642.46,-180 7632.46,-176.5 7632.46,-183.5"/>
</g>
<!-- InfoComponent -->
<g id="node21" class="node">
<title>InfoComponent</title>
<polygon fill="#ffffb3" stroke="black" points="9276.15,-122 9171.85,-122 9171.85,-86 9276.15,-86 9276.15,-122"/>
<text text-anchor="middle" x="9224" y="-99.8" font-family="Times,serif" font-size="14.00">InfoComponent</text>
</g>
<!-- InfoComponent&#45;&gt;PisModule -->
<g id="edge19" class="edge">
<title>InfoComponent&#45;&gt;PisModule</title>
<path fill="none" stroke="black" d="M9182.5,-122.22C9182.5,-122.22 9182.5,-143.73 9182.5,-143.73"/>
<polygon fill="black" stroke="black" points="9179,-143.73 9182.5,-153.73 9186,-143.73 9179,-143.73"/>
</g>
<!-- OrangtuaComponent -->
<g id="node22" class="node">
<title>OrangtuaComponent</title>
<polygon fill="#ffffb3" stroke="black" points="9153.92,-122 9020.08,-122 9020.08,-86 9153.92,-86 9153.92,-122"/>
<text text-anchor="middle" x="9087" y="-99.8" font-family="Times,serif" font-size="14.00">OrangtuaComponent</text>
</g>
<!-- OrangtuaComponent&#45;&gt;PisModule -->
<g id="edge20" class="edge">
<title>OrangtuaComponent&#45;&gt;PisModule</title>
<path fill="none" stroke="black" d="M9141.36,-122.22C9141.36,-122.22 9141.36,-143.73 9141.36,-143.73"/>
<polygon fill="black" stroke="black" points="9137.86,-143.73 9141.36,-153.73 9144.86,-143.73 9137.86,-143.73"/>
</g>
<!-- PendaftaranPasienBaruComponent -->
<g id="node23" class="node">
<title>PendaftaranPasienBaruComponent</title>
<polygon fill="#ffffb3" stroke="black" points="9645.94,-122 9434.06,-122 9434.06,-86 9645.94,-86 9645.94,-122"/>
<text text-anchor="middle" x="9540" y="-99.8" font-family="Times,serif" font-size="14.00">PendaftaranPasienBaruComponent</text>
</g>
<!-- PendaftaranPasienBaruComponent&#45;&gt;PisModule -->
<g id="edge21" class="edge">
<title>PendaftaranPasienBaruComponent&#45;&gt;PisModule</title>
<path fill="none" stroke="black" d="M9540,-122.29C9540,-144.21 9540,-178 9540,-178 9540,-178 9203.32,-178 9203.32,-178"/>
<polygon fill="black" stroke="black" points="9203.32,-174.5 9193.32,-178 9203.32,-181.5 9203.32,-174.5"/>
</g>
<!-- PribadiComponent -->
<g id="node24" class="node">
<title>PribadiComponent</title>
<polygon fill="#ffffb3" stroke="black" points="9415.77,-122 9294.23,-122 9294.23,-86 9415.77,-86 9415.77,-122"/>
<text text-anchor="middle" x="9355" y="-99.8" font-family="Times,serif" font-size="14.00">PribadiComponent</text>
</g>
<!-- PribadiComponent&#45;&gt;PisModule -->
<g id="edge22" class="edge">
<title>PribadiComponent&#45;&gt;PisModule</title>
<path fill="none" stroke="black" d="M9355,-122.27C9355,-140.56 9355,-166 9355,-166 9355,-166 9203.56,-166 9203.56,-166"/>
<polygon fill="black" stroke="black" points="9203.56,-162.5 9193.56,-166 9203.56,-169.5 9203.56,-162.5"/>
</g>
<!-- PisRoutingModule -->
<g id="node26" class="node">
<title>PisRoutingModule</title>
<polygon fill="#8dd3c7" stroke="black" points="8995.79,-122 8992.79,-126 8971.79,-126 8968.79,-122 8874.21,-122 8874.21,-86 8995.79,-86 8995.79,-122"/>
<text text-anchor="middle" x="8935" y="-99.8" font-family="Times,serif" font-size="14.00">PisRoutingModule</text>
</g>
<!-- PisRoutingModule&#45;&gt;PisModule -->
<g id="edge23" class="edge">
<title>PisRoutingModule&#45;&gt;PisModule</title>
<path fill="none" stroke="black" d="M8935,-122.01C8935,-138.05 8935,-159 8935,-159 8935,-159 9106.68,-159 9106.68,-159"/>
<polygon fill="black" stroke="black" points="9106.68,-162.5 9116.68,-159 9106.68,-155.5 9106.68,-162.5"/>
</g>
<!-- AtmButtonDangerComponent -->
<g id="node27" class="node">
<title>AtmButtonDangerComponent</title>
<polygon fill="#ffffb3" stroke="black" points="5236.53,-190 5051.47,-190 5051.47,-154 5236.53,-154 5236.53,-190"/>
<text text-anchor="middle" x="5144" y="-167.8" font-family="Times,serif" font-size="14.00">AtmButtonDangerComponent</text>
</g>
<!-- AtmButtonDangerComponent&#45;&gt;SharedModule -->
<g id="edge25" class="edge">
<title>AtmButtonDangerComponent&#45;&gt;SharedModule</title>
<path fill="none" stroke="black" d="M5144,-153.84C5144,-131.65 5144,-97 5144,-97 5144,-97 618.54,-97 618.54,-97"/>
<polygon fill="black" stroke="black" points="618.54,-93.5 608.54,-97 618.54,-100.5 618.54,-93.5"/>
</g>
<!-- AtmButtonPrimaryComponent -->
<g id="node28" class="node">
<title>AtmButtonPrimaryComponent</title>
<polygon fill="#ffffb3" stroke="black" points="5033.94,-190 4844.06,-190 4844.06,-154 5033.94,-154 5033.94,-190"/>
<text text-anchor="middle" x="4939" y="-167.8" font-family="Times,serif" font-size="14.00">AtmButtonPrimaryComponent</text>
</g>
<!-- AtmButtonPrimaryComponent&#45;&gt;SharedModule -->
<g id="edge26" class="edge">
<title>AtmButtonPrimaryComponent&#45;&gt;SharedModule</title>
<path fill="none" stroke="black" d="M4939,-153.71C4939,-131.79 4939,-98 4939,-98 4939,-98 618.57,-98 618.57,-98"/>
<polygon fill="black" stroke="black" points="618.57,-94.5 608.57,-98 618.57,-101.5 618.57,-94.5"/>
</g>
<!-- AtmHeaderRibbonComponent -->
<g id="node29" class="node">
<title>AtmHeaderRibbonComponent</title>
<polygon fill="#ffffb3" stroke="black" points="4825.86,-190 4638.14,-190 4638.14,-154 4825.86,-154 4825.86,-190"/>
<text text-anchor="middle" x="4732" y="-167.8" font-family="Times,serif" font-size="14.00">AtmHeaderRibbonComponent</text>
</g>
<!-- AtmHeaderRibbonComponent&#45;&gt;SharedModule -->
<g id="edge27" class="edge">
<title>AtmHeaderRibbonComponent&#45;&gt;SharedModule</title>
<path fill="none" stroke="black" d="M4732,-153.83C4732,-132.5 4732,-100 4732,-100 4732,-100 618.4,-100 618.4,-100"/>
<polygon fill="black" stroke="black" points="618.4,-96.5 608.4,-100 618.4,-103.5 618.4,-96.5"/>
</g>
<!-- AtmInputComponent -->
<g id="node30" class="node">
<title>AtmInputComponent</title>
<polygon fill="#ffffb3" stroke="black" points="4619.77,-190 4484.23,-190 4484.23,-154 4619.77,-154 4619.77,-190"/>
<text text-anchor="middle" x="4552" y="-167.8" font-family="Times,serif" font-size="14.00">AtmInputComponent</text>
</g>
<!-- AtmInputComponent&#45;&gt;SharedModule -->
<g id="edge28" class="edge">
<title>AtmInputComponent&#45;&gt;SharedModule</title>
<path fill="none" stroke="black" d="M4552,-153.72C4552,-132.68 4552,-101 4552,-101 4552,-101 618.4,-101 618.4,-101"/>
<polygon fill="black" stroke="black" points="618.4,-97.5 608.4,-101 618.4,-104.5 618.4,-97.5"/>
</g>
<!-- AtmInputGroupComponentAtom -->
<g id="node31" class="node">
<title>AtmInputGroupComponentAtom</title>
<polygon fill="#ffffb3" stroke="black" points="4465.93,-190 4262.07,-190 4262.07,-154 4465.93,-154 4465.93,-190"/>
<text text-anchor="middle" x="4364" y="-167.8" font-family="Times,serif" font-size="14.00">AtmInputGroupComponentAtom</text>
</g>
<!-- AtmInputGroupComponentAtom&#45;&gt;SharedModule -->
<g id="edge29" class="edge">
<title>AtmInputGroupComponentAtom&#45;&gt;SharedModule</title>
<path fill="none" stroke="black" d="M4364,-153.97C4364,-133.23 4364,-102 4364,-102 4364,-102 618.5,-102 618.5,-102"/>
<polygon fill="black" stroke="black" points="618.5,-98.5 608.5,-102 618.5,-105.5 618.5,-98.5"/>
</g>
<!-- AtmLabelComponent -->
<g id="node32" class="node">
<title>AtmLabelComponent</title>
<polygon fill="#ffffb3" stroke="black" points="4244.09,-190 4105.91,-190 4105.91,-154 4244.09,-154 4244.09,-190"/>
<text text-anchor="middle" x="4175" y="-167.8" font-family="Times,serif" font-size="14.00">AtmLabelComponent</text>
</g>
<!-- AtmLabelComponent&#45;&gt;SharedModule -->
<g id="edge30" class="edge">
<title>AtmLabelComponent&#45;&gt;SharedModule</title>
<path fill="none" stroke="black" d="M4175,-153.87C4175,-133.43 4175,-103 4175,-103 4175,-103 618.4,-103 618.4,-103"/>
<polygon fill="black" stroke="black" points="618.4,-99.5 608.4,-103 618.4,-106.5 618.4,-99.5"/>
</g>
<!-- AtmNotificationComponent -->
<g id="node33" class="node">
<title>AtmNotificationComponent</title>
<polygon fill="#ffffb3" stroke="black" points="4087.87,-190 3914.13,-190 3914.13,-154 4087.87,-154 4087.87,-190"/>
<text text-anchor="middle" x="4001" y="-167.8" font-family="Times,serif" font-size="14.00">AtmNotificationComponent</text>
</g>
<!-- AtmNotificationComponent&#45;&gt;SharedModule -->
<g id="edge31" class="edge">
<title>AtmNotificationComponent&#45;&gt;SharedModule</title>
<path fill="none" stroke="black" d="M4001,-153.78C4001,-133.63 4001,-104 4001,-104 4001,-104 618.32,-104 618.32,-104"/>
<polygon fill="black" stroke="black" points="618.32,-100.5 608.32,-104 618.32,-107.5 618.32,-100.5"/>
</g>
<!-- AtmTextareaComponent -->
<g id="node34" class="node">
<title>AtmTextareaComponent</title>
<polygon fill="#ffffb3" stroke="black" points="3895.68,-190 3740.32,-190 3740.32,-154 3895.68,-154 3895.68,-190"/>
<text text-anchor="middle" x="3818" y="-167.8" font-family="Times,serif" font-size="14.00">AtmTextareaComponent</text>
</g>
<!-- AtmTextareaComponent&#45;&gt;SharedModule -->
<g id="edge32" class="edge">
<title>AtmTextareaComponent&#45;&gt;SharedModule</title>
<path fill="none" stroke="black" d="M3818,-153.69C3818,-133.85 3818,-105 3818,-105 3818,-105 618.24,-105 618.24,-105"/>
<polygon fill="black" stroke="black" points="618.24,-101.5 608.24,-105 618.24,-108.5 618.24,-101.5"/>
</g>
<!-- AtmValidatorsComponent -->
<g id="node35" class="node">
<title>AtmValidatorsComponent</title>
<polygon fill="#ffffb3" stroke="black" points="6754.03,-190 6589.97,-190 6589.97,-154 6754.03,-154 6754.03,-190"/>
<text text-anchor="middle" x="6672" y="-167.8" font-family="Times,serif" font-size="14.00">AtmValidatorsComponent</text>
</g>
<!-- AtmValidatorsComponent&#45;&gt;SharedModule -->
<g id="edge33" class="edge">
<title>AtmValidatorsComponent&#45;&gt;SharedModule</title>
<path fill="none" stroke="black" d="M6672,-153.99C6672,-129.58 6672,-89 6672,-89 6672,-89 618.65,-89 618.65,-89"/>
<polygon fill="black" stroke="black" points="618.65,-85.5 608.65,-89 618.65,-92.5 618.65,-85.5"/>
</g>
<!-- MolGridComponent -->
<g id="node36" class="node">
<title>MolGridComponent</title>
<polygon fill="#ffffb3" stroke="black" points="6572.33,-190 6441.67,-190 6441.67,-154 6572.33,-154 6572.33,-190"/>
<text text-anchor="middle" x="6507" y="-167.8" font-family="Times,serif" font-size="14.00">MolGridComponent</text>
</g>
<!-- MolGridComponent&#45;&gt;SharedModule -->
<g id="edge34" class="edge">
<title>MolGridComponent&#45;&gt;SharedModule</title>
<path fill="none" stroke="black" d="M6507,-153.8C6507,-129.64 6507,-90 6507,-90 6507,-90 618.63,-90 618.63,-90"/>
<polygon fill="black" stroke="black" points="618.63,-86.5 608.63,-90 618.63,-93.5 618.63,-86.5"/>
</g>
<!-- MolInputGroupComponent -->
<g id="node37" class="node">
<title>MolInputGroupComponent</title>
<polygon fill="#ffffb3" stroke="black" points="6423.99,-190 6254.01,-190 6254.01,-154 6423.99,-154 6423.99,-190"/>
<text text-anchor="middle" x="6339" y="-167.8" font-family="Times,serif" font-size="14.00">MolInputGroupComponent</text>
</g>
<!-- MolInputGroupComponent&#45;&gt;SharedModule -->
<g id="edge35" class="edge">
<title>MolInputGroupComponent&#45;&gt;SharedModule</title>
<path fill="none" stroke="black" d="M6339,-153.62C6339,-129.72 6339,-91 6339,-91 6339,-91 618.53,-91 618.53,-91"/>
<polygon fill="black" stroke="black" points="618.53,-87.5 608.53,-91 618.53,-94.5 618.53,-87.5"/>
</g>
<!-- MolInputGroupKodeComponent -->
<g id="node38" class="node">
<title>MolInputGroupKodeComponent</title>
<polygon fill="#ffffb3" stroke="black" points="6236.31,-190 6035.69,-190 6035.69,-154 6236.31,-154 6236.31,-190"/>
<text text-anchor="middle" x="6136" y="-167.8" font-family="Times,serif" font-size="14.00">MolInputGroupKodeComponent</text>
</g>
<!-- MolInputGroupKodeComponent&#45;&gt;SharedModule -->
<g id="edge36" class="edge">
<title>MolInputGroupKodeComponent&#45;&gt;SharedModule</title>
<path fill="none" stroke="black" d="M6136,-153.85C6136,-130.24 6136,-92 6136,-92 6136,-92 618.49,-92 618.49,-92"/>
<polygon fill="black" stroke="black" points="618.49,-88.5 608.49,-92 618.49,-95.5 618.49,-88.5"/>
</g>
<!-- MolInputTextComponent -->
<g id="node39" class="node">
<title>MolInputTextComponent</title>
<polygon fill="#ffffb3" stroke="black" points="6017.88,-190 5858.12,-190 5858.12,-154 6017.88,-154 6017.88,-190"/>
<text text-anchor="middle" x="5938" y="-167.8" font-family="Times,serif" font-size="14.00">MolInputTextComponent</text>
</g>
<!-- MolInputTextComponent&#45;&gt;SharedModule -->
<g id="edge37" class="edge">
<title>MolInputTextComponent&#45;&gt;SharedModule</title>
<path fill="none" stroke="black" d="M5938,-153.68C5938,-130.34 5938,-93 5938,-93 5938,-93 618.4,-93 618.4,-93"/>
<polygon fill="black" stroke="black" points="618.4,-89.5 608.4,-93 618.4,-96.5 618.4,-89.5"/>
</g>
<!-- MolInputTextareaComponent -->
<g id="node40" class="node">
<title>MolInputTextareaComponent</title>
<polygon fill="#ffffb3" stroke="black" points="5839.68,-190 5656.32,-190 5656.32,-154 5839.68,-154 5839.68,-190"/>
<text text-anchor="middle" x="5748" y="-167.8" font-family="Times,serif" font-size="14.00">MolInputTextareaComponent</text>
</g>
<!-- MolInputTextareaComponent&#45;&gt;SharedModule -->
<g id="edge38" class="edge">
<title>MolInputTextareaComponent&#45;&gt;SharedModule</title>
<path fill="none" stroke="black" d="M5748,-153.91C5748,-130.87 5748,-94 5748,-94 5748,-94 618.28,-94 618.28,-94"/>
<polygon fill="black" stroke="black" points="618.28,-90.5 608.28,-94 618.28,-97.5 618.28,-90.5"/>
</g>
<!-- MolLockUpFiltersComponent -->
<g id="node41" class="node">
<title>MolLockUpFiltersComponent</title>
<polygon fill="#ffffb3" stroke="black" points="5638.32,-190 5451.68,-190 5451.68,-154 5638.32,-154 5638.32,-190"/>
<text text-anchor="middle" x="5545" y="-167.8" font-family="Times,serif" font-size="14.00">MolLockUpFiltersComponent</text>
</g>
<!-- MolLockUpFiltersComponent&#45;&gt;SharedModule -->
<g id="edge39" class="edge">
<title>MolLockUpFiltersComponent&#45;&gt;SharedModule</title>
<path fill="none" stroke="black" d="M5545,-153.75C5545,-130.98 5545,-95 5545,-95 5545,-95 618.35,-95 618.35,-95"/>
<polygon fill="black" stroke="black" points="618.35,-91.5 608.35,-95 618.35,-98.5 618.35,-91.5"/>
</g>
<!-- OrgInputLookUpComponent -->
<g id="node42" class="node">
<title>OrgInputLookUpComponent</title>
<polygon fill="#ffffb3" stroke="black" points="5433.81,-190 5254.19,-190 5254.19,-154 5433.81,-154 5433.81,-190"/>
<text text-anchor="middle" x="5344" y="-167.8" font-family="Times,serif" font-size="14.00">OrgInputLookUpComponent</text>
</g>
<!-- OrgInputLookUpComponent&#45;&gt;SharedModule -->
<g id="edge40" class="edge">
<title>OrgInputLookUpComponent&#45;&gt;SharedModule</title>
<path fill="none" stroke="black" d="M5344,-153.99C5344,-131.51 5344,-96 5344,-96 5344,-96 618.31,-96 618.31,-96"/>
<polygon fill="black" stroke="black" points="618.31,-92.5 608.31,-96 618.31,-99.5 618.31,-92.5"/>
</g>
</g>
</svg>
